<?xml version="1.0" encoding="UTF-8"?>
<!-- Generator: visioncortex VTracer 0.6.12 -->
<svg version="1.1" xmlns="http://www.w3.org/2000/svg" width="1536" height="1024">
<path d="M0,0 L35,0 L37,34 L44,38 L49,37 L55,36 L61,39 L64,36 L69,35 L75,39 L80,35 L86,36 L90,40 L97,37 L102,40 L106,41 L110,39 L116,39 L123,43 L134,43 L139,46 L144,47 L151,48 L154,51 L161,51 L162,52 L172,54 L178,57 L186,57 L191,62 L192,63 L201,64 L209,70 L212,73 L222,75 L227,80 L233,84 L235,87 L246,90 L250,94 L253,99 L259,103 L264,109 L268,114 L272,116 L273,120 L272,124 L277,129 L286,130 L291,137 L298,140 L299,141 L299,151 L304,156 L309,162 L312,164 L312,169 L309,172 L314,174 L317,179 L317,188 L322,193 L324,195 L323,200 L322,201 L281,200 L277,199 L274,196 L265,211 L263,213 L80,213 L53,212 L52,203 L46,201 L5,198 L2,196 L1,155 L-1,1 Z M14,66 L16,71 L23,76 L33,77 L38,80 L40,83 L47,83 L51,80 L51,73 L56,78 L61,83 L68,85 L68,88 L64,90 L59,96 L55,97 L52,95 L51,100 L54,105 L59,108 L65,108 L72,104 L80,104 L82,105 L81,117 L80,124 L79,125 L79,131 L80,133 L72,133 L67,136 L65,140 L75,138 L84,139 L84,131 L83,129 L90,134 L89,141 L86,146 L79,150 L78,152 L78,163 L82,169 L90,173 L100,173 L106,168 L107,165 L98,168 L91,168 L85,165 L83,161 L83,154 L88,151 L98,153 L111,152 L116,146 L122,136 L130,128 L138,122 L137,120 L127,124 L118,132 L109,146 L104,148 L92,147 L94,138 L103,137 L106,135 L106,130 L102,124 L102,116 L106,108 L110,105 L116,104 L117,98 L115,93 L113,92 L106,92 L106,87 L103,86 L102,92 L107,97 L111,100 L106,101 L99,109 L96,118 L97,127 L98,131 L88,126 L86,124 L86,114 L87,104 L81,99 L72,99 L64,103 L61,102 L67,94 L70,92 L84,92 L85,90 L84,88 L71,85 L66,78 L65,74 L69,75 L75,83 L80,86 L87,86 L96,85 L106,85 L115,78 L135,77 L153,74 L153,72 L145,70 L138,70 L134,72 L114,72 L104,79 L96,80 L97,78 L97,72 L92,67 L66,68 L63,69 L56,69 L52,67 L48,68 L44,73 L44,76 L48,75 L48,77 L44,77 L40,72 L37,70 L23,71 L24,67 L21,66 Z M162,117 L161,124 L139,136 L129,145 L123,157 L119,166 L113,168 L114,172 L121,173 L125,174 L114,178 L114,182 L116,185 L119,184 L121,179 L128,179 L130,181 L131,186 L136,182 L137,175 L135,171 L130,169 L124,169 L130,153 L137,144 L146,137 L160,130 L168,129 L175,133 L177,134 L176,127 L171,120 L166,117 Z M68,161 L65,167 L65,174 L60,175 L60,181 L64,186 L68,188 L75,187 L78,186 L85,189 L90,190 L98,190 L111,187 L113,185 L111,184 L89,185 L79,182 L71,175 L70,173 L70,161 Z " fill="#FFFFFF" transform="translate(927,392)"/>
<path d="M0,0 L36,0 L35,51 L34,133 L33,183 L32,197 L29,198 L-9,200 L-17,202 L-18,212 L-217,213 L-228,213 L-231,210 L-239,196 L-240,195 L-243,199 L-249,200 L-287,201 L-289,199 L-288,194 L-283,189 L-282,185 L-282,177 L-277,172 L-275,171 L-278,168 L-277,163 L-273,162 L-271,157 L-265,152 L-264,147 L-264,141 L-258,137 L-255,136 L-251,130 L-241,128 L-238,124 L-238,117 L-231,111 L-228,106 L-221,100 L-217,97 L-214,91 L-205,88 L-201,87 L-196,82 L-193,81 L-188,75 L-176,72 L-168,65 L-156,62 L-151,57 L-143,57 L-136,53 L-128,52 L-124,51 L-120,52 L-115,47 L-105,48 L-103,44 L-101,43 L-89,44 L-84,40 L-82,39 L-73,40 L-69,41 L-64,37 L-58,38 L-54,40 L-49,35 L-43,37 L-40,39 L-35,35 L-29,37 L-26,39 L-21,36 L-16,36 L-13,38 L-8,37 L-6,35 L-2,35 L-1,3 Z M10,66 L11,71 L-3,71 L-8,74 L-14,67 L-22,69 L-39,68 L-48,68 L-56,67 L-61,70 L-62,72 L-62,80 L-68,80 L-77,74 L-79,72 L-98,72 L-103,70 L-113,71 L-118,72 L-118,74 L-92,78 L-81,78 L-68,86 L-71,89 L-71,92 L-79,92 L-82,96 L-81,103 L-71,108 L-67,117 L-67,124 L-72,130 L-71,134 L-67,137 L-61,137 L-50,130 L-51,139 L-49,140 L-45,138 L-39,138 L-38,139 L-32,139 L-33,135 L-37,133 L-45,133 L-44,124 L-46,117 L-48,106 L-45,104 L-37,104 L-31,108 L-24,108 L-18,104 L-17,98 L-19,96 L-22,98 L-27,91 L-32,87 L-32,85 L-25,82 L-18,74 L-17,76 L-15,82 L-13,83 L-5,83 L-2,78 L13,75 L20,69 L21,66 Z M-132,117 L-140,125 L-143,131 L-142,135 L-136,130 L-126,130 L-110,138 L-100,146 L-94,156 L-90,169 L-100,171 L-102,174 L-102,181 L-96,186 L-94,180 L-89,179 L-86,179 L-84,185 L-80,183 L-78,179 L-81,171 L-77,169 L-85,165 L-92,149 L-98,141 L-108,134 L-126,124 L-128,124 L-127,120 L-128,117 Z M-104,121 L-99,126 L-90,133 L-83,143 L-77,152 L-71,153 L-63,153 L-52,152 L-48,154 L-48,161 L-53,167 L-63,168 L-70,165 L-73,166 L-69,171 L-65,173 L-55,173 L-48,169 L-43,161 L-43,153 L-47,148 L-52,145 L-57,136 L-58,136 L-58,145 L-57,147 L-69,148 L-75,145 L-83,133 L-88,128 L-93,124 L-99,121 Z M-35,161 L-35,172 L-40,179 L-50,184 L-57,185 L-66,184 L-77,184 L-78,186 L-69,189 L-64,190 L-55,190 L-42,186 L-39,188 L-31,187 L-26,182 L-25,176 L-26,174 L-29,174 L-31,182 L-36,182 L-30,174 L-30,164 L-32,161 Z " fill="#FFFFFF" transform="translate(574,392)"/>
<path d="M0,0 L32,0 L33,1 L34,78 L34,260 L0,260 L-1,184 L-2,44 L-2,8 Z " fill="#FFFFFF" transform="translate(1207,664)"/>
<path d="M0,0 L33,0 L34,1 L34,87 L33,255 L32,261 L-2,260 L-1,31 Z " fill="#FFFFFF" transform="translate(296,664)"/>
<path d="M0,0 L26,0 L46,2 L63,5 L85,11 L107,20 L122,28 L139,40 L149,49 L157,56 L169,70 L182,88 L190,104 L195,118 L195,120 L178,120 L173,112 L162,92 L150,75 L130,55 L113,43 L97,34 L78,26 L53,19 L29,16 L-9,16 L-37,20 L-58,26 L-74,33 L-88,40 L-100,48 L-110,56 L-120,65 L-131,77 L-142,93 L-151,109 L-157,120 L-175,120 L-173,111 L-164,91 L-151,73 L-139,59 L-134,54 L-123,43 L-108,32 L-93,23 L-78,16 L-59,9 L-34,3 L-18,1 Z " fill="#FFFFFF" transform="translate(758,247)"/>
<path d="M0,0 L20,0 L25,2 L26,29 L26,206 L24,229 L23,230 L10,231 L1,231 L-4,230 L-5,224 L-6,207 L-7,105 L-7,19 L-5,2 Z " fill="#FFFFFF" transform="translate(575,663)"/>
<path d="M0,0 L21,0 L26,2 L27,5 L27,212 L26,227 L25,230 L20,231 L1,231 L-2,230 L-3,227 L-4,203 L-5,152 L-5,13 L-4,4 Z " fill="#FFFFFF" transform="translate(939,663)"/>
<path d="M0,0 L4,1 L7,21 L7,29 L-10,34 L-26,40 L-42,48 L-54,56 L-72,74 L-82,89 L-88,99 L-94,115 L-98,132 L-100,149 L-129,149 L-130,140 L-127,119 L-122,100 L-116,85 L-106,65 L-98,54 L-84,40 L-70,29 L-55,19 L-36,10 L-13,3 Z " fill="#FFFFFF" transform="translate(737,674)"/>
<path d="M0,0 L9,1 L29,6 L47,13 L63,21 L77,31 L88,40 L101,52 L110,64 L118,79 L126,98 L131,115 L133,125 L134,135 L134,149 L105,149 L103,131 L97,109 L91,95 L81,80 L73,70 L59,56 L41,45 L24,37 L5,31 L-2,29 L-2,15 Z " fill="#FFFFFF" transform="translate(794,674)"/>
<path d="M0,0 L406,0 L406,9 L404,12 L2,12 L-1,7 Z " fill="#FFFFFF" transform="translate(565,370)"/>
<path d="M0,0 L307,0 L310,5 L309,13 L307,15 L2,15 L-1,13 L-2,10 L-2,3 Z " fill="#FFFFFF" transform="translate(614,609)"/>
<path d="M0,0 L4,2 L3,9 L2,12 L4,11 L10,11 L13,13 L13,24 L21,21 L22,20 L28,20 L28,23 L16,28 L12,29 L14,39 L10,40 L4,44 L5,49 L15,56 L20,62 L20,76 L17,89 L15,93 L16,101 L20,108 L20,110 L18,110 L18,118 L10,112 L10,117 L8,117 L8,112 L4,110 L9,105 L8,99 L5,97 L-4,95 L-4,94 L6,93 L6,91 L-10,95 L-12,99 L-15,101 L-20,101 L-16,96 L-21,98 L-24,99 L-27,110 L-27,118 L-16,110 L-11,109 L-9,112 L-8,123 L-7,127 L-20,127 L-19,122 L-17,116 L-22,119 L-24,124 L-20,129 L-10,133 L12,135 L11,130 L5,128 L1,121 L-3,122 L-5,123 L-6,119 L-3,116 L3,115 L5,116 L5,126 L15,125 L24,125 L28,127 L28,129 L22,129 L20,130 L21,138 L26,146 L26,148 L37,150 L38,154 L40,154 L40,152 L50,149 L54,148 L54,151 L57,150 L58,148 L66,147 L69,149 L69,154 L63,156 L61,157 L61,164 L63,164 L64,162 L69,163 L79,162 L69,158 L69,157 L76,157 L80,158 L82,165 L82,173 L79,175 L78,167 L74,166 L75,172 L72,172 L69,169 L63,169 L67,176 L63,180 L61,179 L64,175 L62,170 L35,169 L35,167 L38,166 L38,161 L28,161 L28,158 L33,156 L28,152 L27,151 L21,163 L21,169 L23,174 L17,173 L15,170 L15,161 L19,154 L18,147 L6,144 L-19,141 L-28,136 L-32,133 L-35,132 L-35,129 L-41,133 L-50,134 L-48,138 L-49,143 L-54,144 L-57,142 L-57,140 L-55,139 L-56,133 L-51,129 L-43,127 L-40,122 L-41,117 L-41,107 L-38,95 L-32,88 L-24,82 L-1,81 L5,78 L7,75 L7,68 L3,62 L-9,51 L-10,45 L-1,40 L2,35 L2,30 L-5,27 L-5,33 L-1,31 L-2,36 L-5,37 L-7,32 L-21,23 L-21,21 L-23,20 L-14,20 L-6,21 L-6,19 L-8,19 L-7,15 L-6,3 L-3,3 L-2,9 L-4,14 L-2,13 Z M53,151 L47,154 L41,155 L43,159 L48,159 L51,162 L51,164 L48,166 L51,168 L57,168 L60,166 L58,161 L54,151 Z M43,162 L43,165 L46,164 Z " fill="#FFFFFF" transform="translate(675,405)"/>
<path d="M0,0 L1,2 L2,12 L10,17 L10,19 L8,19 L8,21 L21,20 L19,24 L12,30 L7,32 L7,28 L-2,29 L-1,35 L2,40 L11,44 L10,51 L2,59 L-3,63 L-7,70 L-6,76 L-1,80 L2,81 L23,82 L29,85 L35,90 L39,97 L42,107 L42,117 L41,124 L47,128 L55,131 L57,135 L56,139 L57,143 L56,144 L51,144 L48,141 L48,138 L50,137 L50,135 L41,133 L38,130 L34,132 L26,138 L18,141 L-15,146 L-17,148 L-17,154 L-13,163 L-14,170 L-17,174 L-22,175 L-24,173 L-20,171 L-20,162 L-26,151 L-32,155 L-29,157 L-27,158 L-27,160 L-34,161 L-36,163 L-36,168 L-52,169 L-51,167 L-48,166 L-51,164 L-50,159 L-41,158 L-42,155 L-49,153 L-52,150 L-52,149 L-47,149 L-40,152 L-37,155 L-36,150 L-29,148 L-25,148 L-23,143 L-19,135 L-19,130 L-26,130 L-26,132 L-25,134 L-28,135 L-28,133 L-32,134 L-39,132 L-45,126 L-44,121 L-37,120 L-37,129 L-28,129 L-22,125 L-9,126 L-4,127 L-5,129 L-12,132 L-13,135 L3,134 L19,130 L24,125 L24,120 L18,116 L19,126 L16,127 L8,127 L10,123 L11,120 L10,111 L7,111 L5,111 L4,108 L-3,102 L-1,100 L9,99 L12,104 L12,106 L22,103 L26,104 L23,99 L17,96 L20,99 L20,101 L15,100 L12,98 L12,95 L5,93 L-6,91 L-6,93 L4,94 L0,96 L-6,98 L-9,102 L-8,106 L-3,109 L-3,116 L6,115 L6,123 L4,124 L2,121 L0,121 L-2,126 L-4,123 L-5,119 L-8,118 L-7,112 L-7,111 L-11,112 L-14,117 L-17,117 L-18,105 L-15,99 L-15,91 L-19,79 L-20,70 L-20,63 L-23,62 L-23,59 L-15,55 L-4,48 L-3,44 L-9,40 L-12,39 L-12,31 L-10,30 L-22,25 L-28,23 L-25,20 L-18,22 L-13,24 L-12,21 L-12,13 L-9,11 L-1,12 L-3,8 L-3,2 Z M25,105 L14,107 L13,109 L23,114 L26,117 L28,117 L29,111 L27,105 Z M-42,161 L-44,165 L-40,164 L-40,161 Z " fill="#FFFFFF" transform="translate(860,405)"/>
<path d="M0,0 L396,0 L396,3 L394,5 L358,6 L355,10 L43,10 L41,6 L3,5 L0,2 Z " fill="#FFFFFF" transform="translate(569,384)"/>
<path d="M0,0 L30,0 L30,108 L27,109 L0,109 Z " fill="#FFFFFF" transform="translate(898,844)"/>
<path d="M0,0 L30,0 L30,108 L27,109 L1,109 L0,108 Z " fill="#FFFFFF" transform="translate(608,844)"/>
<path d="M0,0 L12,3 L30,10 L42,17 L52,25 L62,34 L73,47 L81,60 L85,69 L85,112 L76,113 L71,112 L68,91 L63,78 L58,69 L50,58 L41,48 L30,40 L15,32 L-2,26 L-5,24 L-4,14 Z " fill="#FFFFFF" transform="translate(477,712)"/>
<path d="M0,0 L208,0 L209,1 L209,14 L208,15 L-1,15 L-1,1 Z " fill="#FFFFFF" transform="translate(983,650)"/>
<path d="M0,0 L5,0 L10,19 L9,24 L-16,34 L-28,41 L-39,50 L-46,57 L-58,76 L-63,89 L-67,112 L-80,112 L-80,67 L-71,50 L-62,39 L-55,32 L-50,27 L-39,17 L-22,7 Z " fill="#FFFFFF" transform="translate(1054,713)"/>
<path d="M0,0 L207,0 L207,15 L-2,15 L-3,12 L-3,1 Z " fill="#FFFFFF" transform="translate(346,650)"/>
<path d="M0,0 L5,0 L8,9 L10,16 L10,23 L1,27 L-16,34 L-29,42 L-42,53 L-52,67 L-60,82 L-64,98 L-65,111 L-66,112 L-77,112 L-78,102 L-78,64 L-69,47 L-57,34 L-45,22 L-32,13 L-16,5 Z " fill="#FFFFFF" transform="translate(414,713)"/>
<path d="M0,0 L15,4 L32,11 L43,18 L53,26 L67,40 L75,51 L81,61 L83,66 L83,82 L82,112 L70,112 L68,93 L64,81 L58,69 L49,57 L42,49 L28,39 L14,32 L-5,25 L-5,16 L-1,1 Z " fill="#FFFFFF" transform="translate(1117,712)"/>
<path d="M0,0 L213,0 L214,13 L210,14 L-3,14 L-3,6 L-2,1 Z " fill="#FFFFFF" transform="translate(345,611)"/>
<path d="M0,0 L213,0 L215,2 L216,13 L215,14 L26,14 L-1,13 L-1,2 Z " fill="#FFFFFF" transform="translate(978,611)"/>
<path d="M0,0 L3,0 L3,75 L-2,74 L-2,28 L-7,28 L-7,74 L-9,74 L-10,70 L-10,28 L-16,29 L-16,74 L-18,74 L-18,29 L-23,30 L-24,74 L-27,74 L-27,30 L-32,31 L-33,75 L-36,75 L-36,31 L-42,31 L-42,72 L-44,76 L-45,75 L-45,32 L-52,32 L-53,76 L-56,76 L-56,44 L-55,33 L-60,33 L-60,56 L-61,76 L-63,76 L-63,34 L-69,34 L-69,74 L-70,76 L-77,76 L-77,19 L-73,10 L-67,6 Z M-7,7 L-57,11 L-66,12 L-69,15 L-69,29 L-65,30 L-11,25 L-3,24 L-2,23 L-2,7 Z " fill="#FFFFFF" transform="translate(533,880)"/>
<path d="M0,0 L27,2 L71,6 L77,10 L80,19 L80,76 L73,76 L72,70 L72,34 L67,34 L66,72 L65,76 L63,76 L63,33 L58,33 L59,55 L59,76 L56,76 L55,33 L48,32 L48,76 L46,76 L45,31 L39,31 L39,75 L37,75 L36,30 L30,30 L30,74 L28,74 L27,30 L22,29 L22,74 L20,74 L19,30 L14,28 L14,54 L13,74 L11,74 L11,28 L5,28 L5,75 L1,75 L0,69 Z M5,7 L5,23 L6,24 L67,30 L72,30 L73,25 L73,18 L71,13 L69,12 L11,7 Z " fill="#FFFFFF" transform="translate(999,880)"/>
<path d="M0,0 L7,1 L12,5 L13,8 L13,68 L6,67 L5,66 L5,28 L-1,29 L-1,66 L-3,66 L-4,30 L-10,30 L-10,66 L-12,66 L-12,31 L-18,32 L-18,67 L-21,67 L-21,32 L-27,32 L-28,68 L-30,67 L-30,33 L-35,34 L-35,63 L-34,68 L-38,68 L-38,34 L-44,35 L-44,68 L-46,68 L-46,35 L-48,36 L-49,69 L-57,69 L-57,11 L-53,8 L-37,5 Z M0,6 L-47,13 L-49,14 L-49,31 L-47,32 L-23,28 L5,24 L5,7 Z " fill="#FFFFFF" transform="translate(440,888)"/>
<path d="M0,0 L14,1 L54,7 L60,10 L61,13 L60,69 L53,69 L52,36 L49,35 L49,67 L47,68 L46,35 L40,34 L41,68 L37,68 L38,61 L37,34 L32,33 L32,67 L30,67 L29,33 L23,32 L23,67 L21,67 L21,31 L14,31 L14,67 L12,67 L12,30 L6,29 L5,66 L3,66 L3,28 L-3,28 L-3,68 L-10,68 L-10,10 L-8,5 L-4,1 Z M0,6 L-2,8 L-2,24 L46,31 L52,31 L52,14 L46,12 L4,6 Z " fill="#FFFFFF" transform="translate(1092,888)"/>
<path d="M0,0 L35,0 L35,54 L-1,54 Z " fill="#FFFFFF" transform="translate(933,898)"/>
<path d="M0,0 L17,0 L17,109 L13,110 L8,109 L6,110 L0,110 L-1,106 L-1,1 Z " fill="#FFFFFF" transform="translate(545,843)"/>
<path d="M0,0 L35,0 L35,54 L0,54 Z " fill="#FFFFFF" transform="translate(568,898)"/>
<path d="M0,0 L15,0 L16,1 L16,109 L11,110 L-1,110 L-1,1 Z " fill="#FFFFFF" transform="translate(975,843)"/>
<path d="M0,0 L21,1 L28,3 L26,34 L25,35 L-15,35 L-17,26 L-20,3 L-15,1 Z " fill="#FFFFFF" transform="translate(763,669)"/>
<path d="M0,0 L13,0 L13,94 L12,109 L1,109 L0,108 Z " fill="#FFFFFF" transform="translate(1184,843)"/>
<path d="M0,0 L17,0 L32,2 L36,3 L34,13 L30,30 L29,31 L-10,31 L-12,25 L-16,9 L-16,3 L-8,1 Z " fill="#FFFFFF" transform="translate(1078,706)"/>
<path d="M0,0 L17,0 L33,2 L36,3 L35,11 L30,31 L-10,31 L-16,7 L-16,3 L-9,1 Z " fill="#FFFFFF" transform="translate(438,706)"/>
<path d="M0,0 L3,2 L4,50 L5,123 L7,127 L17,132 L23,137 L24,139 L24,148 L22,149 L19,144 L14,142 L-11,142 L-19,144 L-20,150 L-22,147 L-22,139 L-17,133 L-8,128 L-6,128 L-4,119 L-3,23 L-2,2 Z " fill="#FFFFFF" transform="translate(767,72)"/>
<path d="M0,0 L12,0 L12,108 L7,109 L0,109 L-1,1 Z " fill="#FFFFFF" transform="translate(339,843)"/>
<path d="M0,0 L4,1 L6,5 L19,10 L23,14 L24,16 L24,25 L21,30 L16,34 L9,35 L-5,35 L-14,33 L-19,28 L-20,26 L-20,15 L-16,10 L-6,6 L-1,4 Z " fill="#FFFFFF" transform="translate(766,710)"/>
<path d="M0,0 L4,1 L5,4 L18,9 L23,15 L23,23 L20,29 L13,33 L-7,33 L-16,30 L-19,25 L-19,14 L-15,9 L-8,6 L-1,4 Z " fill="#FFFFFF" transform="translate(1086,743)"/>
<path d="M0,0 L4,1 L4,5 L13,7 L20,11 L22,14 L22,25 L17,31 L12,33 L-7,33 L-15,31 L-19,26 L-20,24 L-20,15 L-17,10 L-8,6 L-1,4 Z " fill="#FFFFFF" transform="translate(447,743)"/>
<path d="M0,0 L6,2 L9,1 L8,4 L3,7 L0,12 L-9,15 L-16,15 L-16,19 L-1,18 L5,23 L9,30 L2,30 L-3,27 L-13,27 L-17,30 L-17,37 L-16,42 L-16,51 L-21,55 L-30,58 L-28,51 L-29,43 L-34,33 L-41,27 L-41,24 L-35,20 L-31,12 L-26,10 L-21,11 L-15,13 L-8,10 L-2,3 Z " fill="#FFFFFF" transform="translate(540,465)"/>
<path d="M0,0 L49,0 L49,19 L0,19 L-1,17 L-1,4 Z " fill="#FFFFFF" transform="translate(284,932)"/>
<path d="M0,0 L48,0 L49,1 L49,18 L48,19 L0,19 L-1,15 L-1,1 Z " fill="#FFFFFF" transform="translate(1203,932)"/>
<path d="M0,0 L41,0 L43,5 L42,17 L40,18 L-6,18 L-9,16 L-9,4 L-7,4 L-7,1 Z " fill="#FFFFFF" transform="translate(296,642)"/>
<path d="M0,0 L47,0 L49,2 L49,15 L47,17 L42,18 L0,18 L-3,16 L-3,2 Z " fill="#FFFFFF" transform="translate(1200,642)"/>
<path d="M0,0 L45,0 L48,4 L48,15 L46,17 L39,18 L-1,18 L-5,16 L-5,7 L-1,5 Z " fill="#FFFFFF" transform="translate(290,600)"/>
<path d="M0,0 L46,0 L47,5 L51,7 L51,15 L49,17 L-1,17 L-3,10 L-3,4 Z " fill="#FFFFFF" transform="translate(1200,600)"/>
<path d="M0,0 L44,0 L47,2 L48,10 L46,17 L41,19 L39,18 L6,18 L2,19 L-2,17 L-2,2 Z " fill="#FFFFFF" transform="translate(928,643)"/>
<path d="M0,0 L42,0 L47,3 L46,16 L42,19 L38,18 L5,18 L1,19 L-3,17 L-3,2 Z " fill="#FFFFFF" transform="translate(563,643)"/>
<path d="M0,0 L2,1 L0,5 L-1,11 L7,11 L12,14 L12,16 L2,17 L4,21 L11,22 L13,19 L16,25 L16,28 L7,27 L10,30 L16,31 L24,25 L35,24 L40,28 L40,31 L43,32 L44,40 L43,41 L35,41 L31,37 L23,37 L20,41 L18,41 L16,37 L10,36 L6,40 L-8,40 L-15,34 L-16,30 L-14,24 L-13,22 L-16,14 L-15,8 L-10,3 L-7,3 L-9,8 L-10,16 L-8,19 L-2,18 L-1,14 L-5,10 L-5,5 Z M-1,19 L-5,26 L-12,29 L-10,33 L-6,36 L-2,35 L2,30 L1,21 Z M24,27 L23,30 L32,32 L35,36 L35,40 L38,39 L39,34 L37,29 L35,27 Z " fill="#FFFFFF" transform="translate(633,557)"/>
<path d="M0,0 L6,2 L10,7 L9,14 L7,20 L10,24 L10,31 L5,35 L1,37 L-12,37 L-16,33 L-22,34 L-24,39 L-27,39 L-29,34 L-33,33 L-39,35 L-39,38 L-43,37 L-45,31 L-47,31 L-46,28 L-43,23 L-39,21 L-31,22 L-29,24 L-38,25 L-42,29 L-40,31 L-34,26 L-27,26 L-24,28 L-16,27 L-13,24 L-21,26 L-22,23 L-17,16 L-18,13 L-28,15 L-38,12 L-38,11 L-26,9 L-18,10 L-13,8 L-5,9 L-9,13 L-15,15 L-15,18 L-6,18 L-6,25 L-9,25 L-6,31 L-2,32 L4,29 L6,25 L0,23 L-5,15 L3,15 L4,14 L4,8 Z " fill="#FFFFFF" transform="translate(909,560)"/>
<path d="M0,0 L15,0 L24,2 L29,5 L30,7 L30,15 L24,23 L20,22 L15,20 L3,20 L-3,23 L-8,21 L-12,15 L-12,6 L-7,2 Z " fill="#FFFFFF" transform="translate(759,218)"/>
<path d="M0,0 L7,6 L9,9 L9,14 L12,11 L15,12 L15,14 L18,15 L13,19 L10,20 L18,24 L15,25 L13,24 L4,24 L-1,29 L-2,31 L2,33 L6,37 L3,38 L-3,34 L-8,35 L-14,39 L-19,40 L-30,40 L-27,43 L-28,45 L-39,38 L-43,37 L-50,39 L-58,39 L-72,34 L-69,33 L-60,36 L-51,36 L-55,27 L-50,27 L-54,20 L-61,17 L-62,15 L-57,16 L-49,21 L-44,26 L-42,35 L-27,34 L-14,30 L-6,30 L-6,23 L-11,18 L-13,16 L-10,15 L-3,18 L-1,20 L0,24 L3,19 L0,10 Z M-49,28 Z M-48,30 Z M-47,31 L-46,36 L-45,33 Z M-32,38 Z " fill="#FFFFFF" transform="translate(877,305)"/>
<path d="M0,0 L2,0 L2,8 L-2,17 L0,21 L2,21 L5,16 L11,14 L15,16 L8,20 L7,22 L7,30 L10,30 L10,28 L15,26 L20,27 L16,29 L27,33 L47,34 L52,26 L58,25 L53,35 L65,35 L63,37 L60,38 L49,38 L41,37 L29,43 L30,39 L15,38 L6,32 L-1,37 L-8,38 L-9,34 L-6,29 L-3,28 L-3,34 L2,30 L4,29 L0,24 L-2,23 L-11,23 L-17,25 L-16,22 L-10,19 L-15,15 L-15,13 L-12,13 L-11,10 L-9,10 L-8,12 L-4,4 Z " fill="#FFFFFF" transform="translate(657,306)"/>
<path d="M0,0 L31,0 L32,20 L30,21 L1,21 L0,19 L-1,1 Z " fill="#FFFFFF" transform="translate(568,616)"/>
<path d="M0,0 L31,0 L31,15 L29,21 L-1,20 L-1,1 Z " fill="#FFFFFF" transform="translate(937,616)"/>
<path d="M0,0 L10,0 L16,3 L19,9 L19,16 L16,21 L9,26 L2,26 L-6,22 L-9,17 L-9,7 L-5,2 Z " fill="#FFFFFF" transform="translate(763,462)"/>
<path d="M0,0 L40,0 L40,12 L1,12 Z " fill="#FFFFFF" transform="translate(291,624)"/>
<path d="M0,0 L40,0 L39,12 L37,13 L0,12 Z " fill="#FFFFFF" transform="translate(1205,624)"/>
<path d="M0,0 L6,1 L11,6 L11,8 L13,8 L14,6 L19,10 L22,19 L25,31 L27,44 L31,48 L36,47 L39,44 L42,44 L40,49 L40,51 L41,55 L34,57 L27,63 L27,53 L29,53 L30,56 L31,53 L26,48 L25,47 L24,52 L16,50 L14,41 L14,33 L17,34 L18,44 L19,47 L23,44 L20,34 L22,34 L21,29 L16,17 L16,15 L9,14 L5,10 L7,9 L8,5 L3,4 L3,6 L6,7 L5,9 L0,8 L-3,4 L-2,1 Z " fill="#FFFFFF" transform="translate(797,434)"/>
<path d="M0,0 L10,2 L13,5 L15,3 L16,13 L17,3 L22,5 L21,10 L19,12 L21,14 L28,14 L29,12 L26,11 L27,9 L34,11 L37,17 L39,20 L38,23 L34,21 L37,24 L52,22 L55,25 L53,28 L50,29 L53,31 L53,37 L51,38 L46,35 L46,33 L43,34 L41,37 L37,28 L31,26 L27,18 L20,18 L12,14 L8,9 L2,5 L-1,3 Z M45,25 L43,27 L50,27 L50,25 Z M42,27 Z " fill="#FFFFFF" transform="translate(821,280)"/>
<path d="M0,0 L3,1 L0,6 L0,13 L6,22 L12,26 L22,26 L21,21 L25,20 L25,25 L35,27 L42,25 L42,27 L55,26 L64,29 L62,33 L56,31 L57,35 L53,33 L53,31 L45,31 L39,33 L38,30 L35,31 L36,37 L22,37 L26,35 L31,34 L31,31 L28,30 L18,33 L5,28 L-2,21 L-4,16 L-4,5 Z M39,29 Z " fill="#FFFFFF" transform="translate(775,562)"/>
<path d="M0,0 L5,0 L2,3 L-1,3 L0,6 L5,5 L10,1 L17,2 L19,5 L20,21 L21,24 L21,31 L16,36 L15,42 L11,40 L12,26 L7,15 L7,10 L-1,11 L-2,10 L-2,2 Z " fill="#FFFFFF" transform="translate(786,463)"/>
<path d="M0,0 L6,0 L15,6 L17,7 L17,16 L15,17 L16,9 L8,10 L7,17 L3,27 L4,31 L4,38 L1,41 L-1,34 L-6,29 L-5,22 L-4,20 L-3,5 Z " fill="#FFFFFF" transform="translate(734,464)"/>
<path d="M0,0 L4,1 L0,6 L-6,10 L-16,17 L-25,19 L-29,26 L-35,29 L-37,29 L-37,38 L-39,34 L-42,33 L-42,31 L-44,31 L-46,37 L-50,37 L-51,31 L-43,27 L-41,27 L-41,25 L-32,24 L-32,11 L-25,8 L-25,15 L-17,13 L-19,9 L-19,4 L-16,4 L-14,12 L-14,3 L-11,3 L-12,7 L-10,7 L-8,3 Z " fill="#FFFFFF" transform="translate(712,280)"/>
<path d="M0,0 L5,1 L7,2 L6,6 L1,10 L-9,15 L-12,16 L-16,26 L-18,38 L-21,46 L-27,54 L-26,55 L-24,53 L-23,56 L-23,63 L-30,57 L-34,56 L-37,55 L-37,52 L-35,52 L-38,46 L-37,43 L-32,47 L-32,49 L-24,46 L-23,45 L-20,25 L-16,12 L-12,7 L-9,6 L-5,8 L-4,5 L1,7 L-2,4 Z " fill="#FFFFFF" transform="translate(735,434)"/>
<path d="M0,0 L40,0 L40,9 L0,9 Z " fill="#FFFFFF" transform="translate(888,829)"/>
<path d="M0,0 L40,0 L39,9 L0,9 Z " fill="#FFFFFF" transform="translate(608,829)"/>
<path d="M0,0 L6,1 L14,9 L17,16 L18,18 L18,29 L12,38 L5,42 L-6,45 L-11,43 L-15,43 L-15,46 L-8,48 L-8,49 L-21,49 L-20,42 L-29,39 L-29,37 L-21,39 L-11,38 L1,38 L8,34 L13,28 L14,19 L10,11 L3,5 Z " fill="#FFFFFF" transform="translate(747,550)"/>
<path d="M0,0 L8,0 L11,1 L11,6 L8,6 L2,4 L-13,6 L-18,8 L-14,7 L-6,7 L3,11 L3,13 L-9,12 L-15,16 L-17,13 L-20,13 L-21,18 L-30,18 L-31,14 L-38,13 L-40,9 L-35,4 L-33,3 L-26,3 L-19,4 Z M-33,5 L-35,8 L-29,10 L-28,16 L-23,14 L-21,8 L-27,5 Z " fill="#FFFFFF" transform="translate(719,581)"/>
<path d="M0,0 L3,1 L2,10 L18,10 L22,8 L27,9 L24,11 L26,16 L27,20 L22,19 L17,14 L16,13 L0,12 L-1,19 L3,15 L10,14 L7,17 L2,22 L0,24 L-4,23 L-5,18 L-10,15 L-15,15 L-21,19 L-26,20 L-26,22 L-35,24 L-35,21 L-31,17 L-28,12 L-27,11 L-18,12 L-10,12 L-3,15 L-2,9 L0,3 Z M-23,14 L-25,18 L-20,17 L-18,14 Z " fill="#FFFFFF" transform="translate(724,402)"/>
<path d="M0,0 L11,0 L16,3 L17,4 L17,15 L11,19 L9,21 L1,20 L2,18 L4,18 L4,16 L-10,18 L-17,24 L-25,35 L-27,35 L-27,31 L-25,31 L-24,22 L-21,19 L-10,14 L4,13 L8,11 L7,17 L10,14 L12,10 L12,4 L4,5 L-1,2 Z " fill="#FFFFFF" transform="translate(794,529)"/>
<path d="M0,0 L4,3 L5,9 L9,11 L18,11 L15,8 L10,9 L5,6 L5,3 L14,5 L26,4 L33,7 L40,12 L40,15 L34,14 L29,8 L29,6 L27,6 L26,10 L20,17 L20,22 L16,21 L15,20 L15,14 L13,15 L6,15 L2,12 L-2,11 Z " fill="#FFFFFF" transform="translate(808,343)"/>
<path d="M0,0 L5,1 L6,6 L3,10 L0,10 L0,5 L-4,5 L-6,5 L-5,12 L-8,13 L-8,11 L-11,11 L-12,15 L-18,17 L-29,17 L-29,22 L-25,23 L-31,31 L-33,33 L-33,18 L-36,11 L-36,3 L-34,3 L-33,10 L-31,7 L-30,12 L-30,15 L-24,11 L-13,11 L-12,7 L-9,6 L-8,3 Z " fill="#FFFFFF" transform="translate(803,290)"/>
<path d="M0,0 L41,0 L41,7 L1,7 L0,6 Z " fill="#FFFFFF" transform="translate(932,600)"/>
<path d="M0,0 L3,2 L-3,11 L-6,16 L-8,18 L0,22 L1,28 L-1,29 L0,38 L-4,42 L-6,42 L-5,38 L-5,28 L-4,26 L-7,21 L-12,22 L-14,27 L-10,28 L-8,31 L-9,36 L-12,38 L-15,32 L-16,27 L-16,20 L-13,15 L-8,13 L-8,5 L-4,1 Z " fill="#FFFFFF" transform="translate(916,467)"/>
<path d="M0,0 L2,0 L1,8 L4,2 L7,2 L8,9 L5,14 L10,10 L12,10 L13,7 L23,4 L19,9 L14,10 L8,19 L4,25 L2,24 L3,15 L-1,13 L-2,19 L-8,14 L-12,13 L-13,19 L-17,18 L-16,11 L-11,8 L-4,9 L-2,2 Z M-1,10 Z " fill="#FFFFFF" transform="translate(699,315)"/>
<path d="M0,0 L40,0 L40,7 L0,7 Z " fill="#FFFFFF" transform="translate(563,600)"/>
<path d="M0,0 L3,1 L4,5 L6,6 L6,2 L8,2 L9,4 L12,5 L13,3 L16,9 L12,18 L9,21 L9,10 L5,11 L-2,11 L-3,8 L1,9 L1,3 L-4,6 L-5,12 L-4,14 L1,16 L2,18 L2,25 L-1,31 L-3,28 L-8,13 L-8,6 L-3,1 Z " fill="#FFFFFF" transform="translate(827,436)"/>
<path d="M0,0 L6,0 L3,4 L9,5 L6,7 L3,9 L2,15 L9,17 L11,13 L16,10 L19,12 L19,18 L14,19 L3,19 L-2,16 L-3,9 L-3,7 L-8,15 L-11,17 L-11,6 L-6,1 Z M0,5 Z " fill="#FFFFFF" transform="translate(629,445)"/>
<path d="M0,0 L3,4 L3,12 L-1,11 L-3,15 L-11,15 L-14,14 L-13,20 L-16,23 L-18,22 L-17,18 L-23,13 L-25,9 L-24,5 L-8,4 L-3,3 L-5,8 L-10,9 L-15,9 L-15,11 L-7,11 L-1,9 L-1,1 Z " fill="#FFFFFF" transform="translate(726,343)"/>
<path d="M0,0 L2,0 L1,5 L5,1 L5,0 L12,1 L15,4 L15,11 L11,24 L10,30 L7,27 L6,24 L6,16 L12,12 L11,3 L7,2 L6,7 L10,7 L9,10 L-1,10 L-3,16 L-6,13 L-6,8 L-9,8 L-7,4 L-4,1 L-4,4 L-1,3 Z " fill="#FFFFFF" transform="translate(702,437)"/>
<path d="M0,0 L6,1 L11,5 L13,1 L22,3 L31,7 L31,9 L24,8 L13,8 L13,10 L15,10 L14,15 L13,17 L16,18 L13,23 L10,21 L8,23 L1,23 L5,16 L8,11 L4,3 Z M11,19 Z " fill="#FFFFFF" transform="translate(790,330)"/>
<path d="M0,0 L1,0 L1,17 L2,22 L1,27 L-4,30 L-6,36 L-1,41 L-10,38 L-10,30 L-5,26 L-1,26 L-6,18 L-7,16 L-3,16 L-3,12 L-19,9 L-19,6 L-17,4 L-7,5 L-2,8 Z " fill="#FFFFFF" transform="translate(764,296)"/>
<path d="M0,0 L7,0 L13,4 L12,10 L18,17 L19,19 L19,31 L16,36 L13,34 L14,27 L15,26 L15,21 L12,20 L7,23 L3,27 L3,21 L10,16 L4,7 L1,2 Z " fill="#FFFFFF" transform="translate(617,468)"/>
<path d="M0,0 L6,0 L8,1 L8,3 L14,5 L14,3 L11,0 L19,0 L23,8 L24,12 L10,7 L6,3 L-1,3 L-1,5 L-5,9 L-6,14 L-3,21 L-4,24 L-9,17 L-9,13 L-13,9 L-18,4 L-21,1 L-16,2 L-11,5 L-9,9 L-5,3 Z " fill="#FFFFFF" transform="translate(822,414)"/>
<path d="M0,0 L3,2 L5,10 L10,8 L16,9 L18,13 L18,19 L16,19 L14,14 L9,15 L7,16 L6,19 L13,18 L13,20 L3,21 L3,13 L-3,14 L-6,10 L-6,4 L-2,2 L-1,3 Z " fill="#FFFFFF" transform="translate(835,315)"/>
<path d="M0,0 L7,0 L22,3 L32,4 L34,3 L40,3 L46,7 L47,12 L43,14 L38,12 L38,8 L40,5 L33,6 L34,9 L18,6 L8,4 L2,4 L-4,6 L-5,3 L-7,2 Z " fill="#FFFFFF" transform="translate(811,581)"/>
<path d="M0,0 L11,1 L16,3 L18,10 L17,12 L13,11 L10,6 L10,4 L2,3 L-3,5 L-5,11 L-2,10 L2,6 L0,13 L-6,16 L-8,16 L-9,12 L-11,11 L-11,13 L-13,13 L-14,9 L-17,7 L-14,5 L-13,2 L-11,2 L-10,6 Z " fill="#FFFFFF" transform="translate(764,282)"/>
<path d="M0,0 L7,0 L5,1 L6,5 L10,3 L14,2 L11,6 L19,9 L24,16 L24,23 L18,31 L16,32 L18,28 L20,24 L20,19 L11,10 L9,9 L9,14 L1,8 L1,3 L-1,3 L-2,5 L-4,5 L-4,2 Z " fill="#FFFFFF" transform="translate(837,304)"/>
<path d="M0,0 L23,0 L23,8 L0,8 Z " fill="#FFFFFF" transform="translate(539,830)"/>
<path d="M0,0 L22,0 L23,1 L23,8 L0,8 Z " fill="#FFFFFF" transform="translate(974,830)"/>
<path d="M0,0 L1,0 L2,11 L5,14 L10,12 L9,7 L7,11 L3,10 L2,4 L7,2 L7,0 L12,0 L14,2 L19,3 L16,5 L13,5 L12,5 L13,9 L20,8 L16,11 L12,11 L10,16 L8,17 L1,17 L-3,11 L-2,3 Z " fill="#FFFFFF" transform="translate(821,506)"/>
<path d="M0,0 L6,0 L10,1 L13,0 L17,1 L17,8 L16,12 L12,13 L13,5 L12,5 L10,13 L8,12 L8,10 L5,12 L0,12 L-2,2 Z " fill="#FFFFFF" transform="translate(786,449)"/>
<path d="M0,0 L8,1 L13,3 L12,6 L15,9 L9,9 L2,6 L9,14 L8,18 L5,18 L1,10 L0,11 L-1,15 L-6,7 L-5,2 Z " fill="#FFFFFF" transform="translate(899,550)"/>
<path d="M0,0 L7,1 L12,6 L15,8 L13,1 L19,1 L23,5 L20,11 L17,10 L14,14 L8,15 L6,14 L6,16 L2,15 L2,13 L9,10 L0,2 Z " fill="#FFFFFF" transform="translate(699,524)"/>
<path d="M0,0 L2,0 L0,6 L-4,11 L-6,11 L-7,8 L-8,15 L-8,17 L-4,15 L-1,15 L2,18 L3,13 L8,18 L8,20 L1,21 L-5,20 L-9,21 L-12,19 L-13,12 L-9,5 L-5,1 Z M-6,6 Z " fill="#FFFFFF" transform="translate(657,345)"/>
<path d="M0,0 L21,0 L21,7 L20,8 L0,8 Z " fill="#FFFFFF" transform="translate(1178,830)"/>
<path d="M0,0 L4,2 L5,4 L5,13 L-5,21 L-9,23 L-15,23 L-17,32 L-21,36 L-21,30 L-17,22 L-8,20 L-6,20 L-5,15 L-2,8 L-1,1 Z " fill="#FFFFFF" transform="translate(658,451)"/>
<path d="M0,0 L3,1 L5,3 L6,2 L17,3 L23,5 L22,8 L15,8 L9,5 L12,11 L12,14 L7,13 L4,14 L0,10 L-1,1 Z M7,3 Z M5,10 L6,12 Z " fill="#FFFFFF" transform="translate(797,272)"/>
<path d="M0,0 L3,0 L2,5 L1,8 L8,8 L7,20 L3,18 L2,10 L0,10 L1,15 L-4,17 L-6,20 L-14,19 L-13,16 L-6,13 L-3,13 L-2,10 L-7,9 L-1,1 Z " fill="#FFFFFF" transform="translate(637,325)"/>
<path d="M0,0 L4,1 L13,11 L16,14 L15,17 L8,17 L7,14 L3,11 L3,9 L1,9 L0,12 L-6,13 L-4,8 Z " fill="#FFFFFF" transform="translate(650,551)"/>
<path d="M0,0 L7,3 L9,9 L4,13 L-2,15 L-4,11 L-12,12 L-13,11 L-13,6 L-8,1 L-3,3 L1,7 L1,12 L3,11 L3,5 L0,2 Z " fill="#FFFFFF" transform="translate(774,322)"/>
<path d="M0,0 L2,0 L3,3 L5,0 L7,0 L8,4 L11,4 L9,8 L6,9 L5,12 L0,11 L-6,15 L-13,15 L-16,11 L-16,9 L-8,10 L-6,12 Z M1,8 Z " fill="#FFFFFF" transform="translate(732,273)"/>
<path d="M0,0 L19,0 L19,8 L0,8 Z " fill="#FFFFFF" transform="translate(338,830)"/>
<path d="M0,0 L10,0 L10,9 L8,16 L4,18 L1,14 L-1,1 Z " fill="#FFFFFF" transform="translate(763,747)"/>
<path d="M0,0 L11,0 L11,8 L9,15 L7,18 L4,17 L1,10 Z " fill="#FFFFFF" transform="translate(1082,778)"/>
<path d="M0,0 L2,1 L0,4 L-2,10 L-7,9 L-6,11 L-1,13 L6,21 L4,23 L-2,22 L-8,17 L-10,12 L-10,8 L-2,1 Z " fill="#FFFFFF" transform="translate(740,331)"/>
<path d="M0,0 L3,3 L4,5 L4,12 L1,17 L-1,18 L-7,18 L-10,14 L-9,11 L-6,15 L-2,16 L-1,11 L-4,12 L-5,10 L-4,7 L-11,6 L-16,5 L-16,3 L-14,2 L-7,2 L-1,5 L0,4 Z " fill="#FFFFFF" transform="translate(714,505)"/>
<path d="M0,0 L10,0 L11,2 L9,14 L5,18 L1,13 Z " fill="#FFFFFF" transform="translate(443,778)"/>
<path d="M0,0 L7,1 L12,4 L8,10 L5,12 L1,12 L2,8 L4,6 L4,3 L0,3 L-3,8 L-12,10 L-14,10 L-14,3 L-8,4 Z " fill="#FFFFFF" transform="translate(784,410)"/>
<path d="M0,0 L5,1 L8,3 L12,1 L12,4 L19,8 L23,15 L16,14 L8,9 L4,12 Z M9,5 Z " fill="#FFFFFF" transform="translate(794,316)"/>
<path d="M0,0 L7,1 L3,4 L4,9 L11,19 L11,24 L6,19 L-4,9 L-8,2 Z " fill="#FFFFFF" transform="translate(629,424)"/>
<path d="M0,0 L8,0 L9,2 L6,6 L-6,6 L-3,11 L-3,17 L-8,20 L-11,18 L-8,14 L-8,8 L-11,2 L-2,1 Z " fill="#FFFFFF" transform="translate(895,346)"/>
<path d="M0,0 L4,0 L1,9 L0,11 L-4,9 L-9,13 L-14,15 L-18,14 L-14,8 L-9,5 L-7,2 L-6,5 L-4,5 L-2,1 Z " fill="#FFFFFF" transform="translate(737,316)"/>
<path d="M0,0 L8,1 L10,5 L4,9 L2,9 L2,12 L-7,9 L-14,7 L-17,6 L-17,4 L-11,4 L-7,6 L-4,6 Z " fill="#FFFFFF" transform="translate(668,504)"/>
<path d="M0,0 L1,0 L1,11 L-2,17 L-7,19 L-7,24 L1,28 L3,31 L-4,31 L-9,30 L-10,14 L-2,13 L-3,2 Z " fill="#FFFFFF" transform="translate(724,467)"/>
<path d="M0,0 L12,0 L13,1 L12,11 L11,12 L5,12 L0,9 Z " fill="#FFFFFF" transform="translate(738,449)"/>
<path d="M0,0 L5,5 L4,11 L-3,14 L-13,14 L-19,12 L-19,11 L-9,9 L-5,4 L-3,4 L-2,6 Z " fill="#FFFFFF" transform="translate(915,346)"/>
<path d="M0,0 L15,1 L24,0 L26,4 L22,7 L14,5 L10,4 L3,7 L-4,4 Z " fill="#FFFFFF" transform="translate(756,514)"/>
<path d="M0,0 L11,2 L14,5 L14,12 L10,16 L2,17 L-3,14 L-5,11 L-5,5 Z M1,3 L-2,7 L0,13 L1,14 L7,14 L12,9 L11,4 L10,3 Z " fill="#FFFFFF" transform="translate(635,406)"/>
<path d="M0,0 L6,0 L14,2 L8,12 L0,19 L-3,24 L-5,24 L-3,18 L4,7 L5,4 L1,3 Z " fill="#FFFFFF" transform="translate(901,424)"/>
<path d="M0,0 L7,1 L12,3 L11,7 L5,15 L3,15 L5,7 L-1,7 L-5,9 L-9,8 L-4,3 Z " fill="#FFFFFF" transform="translate(632,550)"/>
<path d="M0,0 L17,0 L16,2 L11,3 L13,16 L11,20 L8,22 L5,18 L7,3 L2,2 Z " fill="#FFFFFF" transform="translate(759,490)"/>
<path d="M0,0 L6,0 L9,4 L9,11 L4,16 L-6,16 L-11,12 L-11,7 L-6,2 Z M-4,3 L-9,8 L-7,13 L-5,14 L2,14 L7,10 L6,6 L3,3 Z " fill="#FFFFFF" transform="translate(897,406)"/>
<path d="M0,0 L8,1 L8,3 L11,4 L10,11 L8,15 L5,13 L5,10 L0,7 L-5,6 L-5,2 Z " fill="#FFFFFF" transform="translate(796,552)"/>
<path d="M0,0 L1,0 L1,5 L-2,7 L-3,4 L-13,9 L-15,9 L-16,14 L-23,15 L-23,13 L-19,13 L-20,7 L-13,1 L-1,1 Z " fill="#FFFFFF" transform="translate(764,272)"/>
<path d="M0,0 L10,0 L10,3 L5,4 L0,3 L-1,4 L-1,11 L1,20 L8,20 L8,21 L0,21 L-5,16 L-7,8 L-5,3 Z " fill="#FFFFFF" transform="translate(731,529)"/>
<path d="M0,0 L11,0 L20,3 L25,6 L27,11 L26,16 L24,16 L17,8 L11,3 L1,2 Z " fill="#FFFFFF" transform="translate(739,543)"/>
<path d="M0,0 L7,0 L8,3 L6,7 L-2,10 L-8,7 L-11,2 Z " fill="#FFFFFF" transform="translate(1012,464)"/>
<path d="M0,0 L5,1 L5,9 L2,12 L-3,13 L1,20 L-4,19 L-10,14 L-13,13 L-13,11 L-3,11 L0,10 L1,5 L-4,7 L-3,3 Z " fill="#FFFFFF" transform="translate(828,296)"/>
<path d="M0,0 L6,0 L4,4 L-3,4 L0,7 L0,12 L-7,13 L-7,11 L-4,10 L-4,8 L-10,7 L-9,13 L-12,13 L-13,6 L-12,4 L-13,2 L-11,1 Z " fill="#FFFFFF" transform="translate(655,439)"/>
<path d="M0,0 L18,1 L18,5 L16,5 L16,7 L9,8 L9,10 L15,10 L16,12 L14,13 L6,13 L5,8 L9,4 L1,3 Z " fill="#FFFFFF" transform="translate(877,439)"/>
<path d="M0,0 L2,1 L-8,8 L-11,11 L-11,21 L-15,20 L-23,15 L-22,10 L-18,8 L-16,15 L-13,8 Z " fill="#FFFFFF" transform="translate(697,344)"/>
<path d="M0,0 L6,0 L5,10 L8,9 L9,6 L12,7 L13,11 L15,8 L17,8 L15,12 L6,15 L0,16 L2,6 L-2,4 Z " fill="#FFFFFF" transform="translate(812,283)"/>
<path d="M0,0 L8,0 L14,4 L16,13 L21,12 L16,16 L11,12 L9,8 L-2,2 Z " fill="#FFFFFF" transform="translate(776,273)"/>
<path d="M0,0 L7,1 L14,3 L15,1 L20,0 L28,0 L29,4 L22,6 L18,5 L15,6 L7,5 L4,6 L-1,4 Z " fill="#FFFFFF" transform="translate(784,518)"/>
<path d="M0,0 L7,0 L10,2 L17,2 L15,6 L9,10 L1,7 L-1,2 Z " fill="#FFFFFF" transform="translate(517,464)"/>
<path d="M0,0 L11,0 L14,1 L13,6 L8,9 L6,7 L4,10 L3,8 L-1,7 L-2,1 Z " fill="#FFFFFF" transform="translate(762,431)"/>
<path d="M0,0 L2,0 L5,12 L10,18 L9,20 L1,16 L-3,10 L-3,4 Z " fill="#FFFFFF" transform="translate(876,451)"/>
<path d="M0,0 L2,0 L5,5 L7,8 L2,9 L1,11 L-1,11 L-2,8 L-6,6 L-8,12 L-10,13 L-11,9 L-14,8 L-8,3 L0,3 Z " fill="#FFFFFF" transform="translate(798,566)"/>
<path d="M0,0 L2,1 L3,16 L4,18 L-3,17 L-5,13 L-6,9 L-3,2 Z " fill="#FFFFFF" transform="translate(748,313)"/>
<path d="M0,0 L4,1 L5,3 L1,2 L1,4 L5,4 L4,7 L-1,7 L-2,3 L-4,4 L-3,11 L0,15 L3,24 L0,23 L-6,13 L-7,10 L-7,2 Z " fill="#FFFFFF" transform="translate(776,338)"/>
<path d="M0,0 L17,1 L18,4 L15,8 L10,9 L3,6 Z " fill="#FFFFFF" transform="translate(660,551)"/>
<path d="M0,0 L5,3 L9,10 L5,11 L3,13 L0,12 L-1,19 L-3,19 L-5,10 L1,9 L-2,4 Z " fill="#FFFFFF" transform="translate(897,324)"/>
<path d="M0,0 L7,1 L9,2 L8,6 L5,6 L5,3 L-2,3 L-1,7 L-10,7 L-15,6 L-18,5 L-18,2 L-14,1 Z M-10,3 L-9,5 L-4,6 L-3,3 Z " fill="#FFFFFF" transform="translate(743,508)"/>
<path d="M0,0 L7,0 L12,3 L13,6 L13,17 L8,13 L3,3 L3,1 Z " fill="#FFFFFF" transform="translate(905,445)"/>
<path d="M0,0 L5,2 L7,6 L7,12 L4,16 L4,17 L-2,17 L-1,10 Z " fill="#FFFFFF" transform="translate(786,313)"/>
<path d="M0,0 L7,1 L6,3 L2,5 L1,8 L4,10 L1,12 L-7,14 L-18,8 L-18,5 L-12,8 L-1,8 Z " fill="#FFFFFF" transform="translate(682,554)"/>
<path d="M0,0 L6,0 L5,5 L-2,10 L-3,17 L1,23 L-3,21 L-7,13 L-6,7 Z " fill="#FFFFFF" transform="translate(681,312)"/>
<path d="M0,0 L2,1 L-5,8 L-14,8 L-17,5 L-17,1 Z " fill="#FFFFFF" transform="translate(876,551)"/>
<path d="M0,0 L5,1 L6,3 L17,1 L14,9 L7,8 L0,4 L0,6 L-4,6 L-3,2 Z " fill="#FFFFFF" transform="translate(767,402)"/>
<path d="M0,0 L4,1 L8,7 L7,13 L3,21 L2,21 L0,5 Z " fill="#FFFFFF" transform="translate(784,483)"/>
<path d="M0,0 L2,1 L3,8 L-1,12 L-5,14 L-11,13 L-11,12 L-5,11 L-4,9 L-8,7 L-10,1 L-6,3 L-4,6 Z " fill="#FFFFFF" transform="translate(866,570)"/>
<path d="M0,0 L4,1 L7,6 L6,9 L0,13 L-7,8 L-6,6 L-1,6 L-1,1 Z " fill="#FFFFFF" transform="translate(766,584)"/>
<path d="M0,0 L4,2 L7,5 L8,1 L11,2 L15,12 L7,10 L1,7 L-1,4 Z " fill="#FFFFFF" transform="translate(712,288)"/>
<path d="M0,0 L4,1 L2,18 L-1,15 L-1,13 L-4,12 L-5,7 L-1,1 Z " fill="#FFFFFF" transform="translate(749,483)"/>
<path d="M0,0 L4,2 L0,6 L-6,10 L-9,9 L-5,7 L-17,8 L-16,5 L-5,1 Z " fill="#FFFFFF" transform="translate(731,331)"/>
<path d="M0,0 L6,0 L5,13 L2,13 L-2,7 L-6,6 L-4,2 Z " fill="#FFFFFF" transform="translate(667,351)"/>
<path d="M0,0 L4,0 L7,4 L15,5 L15,8 L13,9 L5,9 L1,7 L-2,8 L-2,2 Z " fill="#FFFFFF" transform="translate(889,455)"/>
<path d="M0,0 L6,0 L4,4 L-2,12 L-6,15 L-8,14 L-5,7 Z " fill="#FFFFFF" transform="translate(626,404)"/>
<path d="M0,0 L3,1 L3,4 L1,5 L2,7 L-3,7 L-4,10 L-12,10 L-11,6 L-6,4 L-8,2 L-7,1 Z " fill="#FFFFFF" transform="translate(752,355)"/>
<path d="M0,0 L6,0 L11,3 L11,6 L8,7 L5,14 L1,12 L2,7 Z " fill="#FFFFFF" transform="translate(862,351)"/>
<path d="M0,0 L4,1 L6,5 L4,15 L1,15 L-2,7 L-1,2 Z " fill="#FFFFFF" transform="translate(766,533)"/>
<path d="M0,0 L6,1 L9,4 L-3,8 L-12,8 L-12,6 L-7,4 Z " fill="#FFFFFF" transform="translate(871,472)"/>
<path d="M0,0 L5,0 L7,4 L14,5 L14,7 L11,8 L1,8 L-4,3 L-4,1 Z " fill="#FFFFFF" transform="translate(731,305)"/>
<path d="M0,0 L5,1 L14,7 L14,8 L1,7 L-7,3 L-3,1 Z " fill="#FFFFFF" transform="translate(663,472)"/>
<path d="M0,0 L5,1 L6,6 L8,6 L7,13 L3,14 L2,7 L-5,4 L-4,1 Z " fill="#FFFFFF" transform="translate(902,448)"/>
<path d="M0,0 L6,3 L8,8 L8,14 L6,14 L3,8 L2,13 L-1,10 L-2,8 L-2,2 Z " fill="#FFFFFF" transform="translate(865,406)"/>
<path d="M0,0 L2,2 L17,2 L13,6 L6,8 L-2,7 L-5,4 L0,3 Z " fill="#FFFFFF" transform="translate(855,559)"/>
<path d="M0,0 L2,1 L2,12 L0,17 L-3,16 L-4,14 L-4,4 Z " fill="#FFFFFF" transform="translate(780,492)"/>
<path d="M0,0 L5,1 L12,9 L13,15 L8,13 L3,7 L0,2 Z " fill="#FFFFFF" transform="translate(905,404)"/>
<path d="M0,0 L10,0 L7,2 L2,6 L-1,12 L-2,12 L-3,5 L-10,4 L-11,2 L-2,1 Z " fill="#FFFFFF" transform="translate(845,404)"/>
<path d="M0,0 L8,2 L5,7 L3,9 L-5,9 L-10,8 L-10,6 L-2,4 Z " fill="#FFFFFF" transform="translate(801,304)"/>
<path d="M0,0 L3,0 L3,2 L-5,5 L-8,11 L-9,18 L-12,15 L-11,6 L-6,1 Z " fill="#FFFFFF" transform="translate(790,562)"/>
<path d="M0,0 L3,0 L4,8 L11,11 L7,13 L4,15 L2,13 L-9,13 L-12,11 L-7,10 L1,10 Z " fill="#FFFFFF" transform="translate(809,402)"/>
<path d="M0,0 L8,1 L10,3 L13,2 L13,5 L18,4 L18,6 L13,7 L1,6 L0,5 Z " fill="#FFFFFF" transform="translate(724,517)"/>
<path d="M0,0 L4,1 L10,4 L19,4 L17,6 L11,8 L1,8 L0,6 Z " fill="#FFFFFF" transform="translate(623,352)"/>
<path d="M0,0 L3,0 L3,17 L-1,15 L-4,12 L-3,7 Z " fill="#FFFFFF" transform="translate(624,493)"/>
<path d="M0,0 L5,0 L5,12 L1,14 L-1,9 Z " fill="#FFFFFF" transform="translate(755,494)"/>
<path d="M0,0 L4,2 L10,2 L13,0 L15,3 L14,8 L6,8 L1,4 Z " fill="#FFFFFF" transform="translate(753,412)"/>
<path d="M0,0 L1,0 L1,6 L-3,13 L-10,13 L-8,8 Z " fill="#FFFFFF" transform="translate(881,555)"/>
<path d="M0,0 L4,1 L6,5 L4,5 L5,10 L8,13 L-1,12 L-1,1 Z " fill="#FFFFFF" transform="translate(703,295)"/>
<path d="M0,0 L11,0 L19,3 L19,4 L12,6 L11,11 L7,6 L3,2 Z " fill="#FFFFFF" transform="translate(682,404)"/>
<path d="M0,0 L7,1 L16,2 L12,6 L2,6 L-1,3 Z " fill="#FFFFFF" transform="translate(633,346)"/>
<path d="M0,0 L5,3 L4,8 L-2,10 L-5,6 L-3,1 Z " fill="#FFFFFF" transform="translate(825,424)"/>
<path d="M0,0 L5,5 L5,7 L1,8 L0,6 L-4,10 L-9,3 L-8,1 L-2,2 Z " fill="#FFFFFF" transform="translate(805,356)"/>
<path d="M0,0 L16,2 L16,4 L13,5 L-3,5 L-1,1 Z " fill="#FFFFFF" transform="translate(649,569)"/>
<path d="M0,0 L1,0 L1,7 L-8,13 L-11,13 L-11,8 L-6,4 L0,5 Z " fill="#FFFFFF" transform="translate(838,519)"/>
<path d="M0,0 L2,0 L2,2 L0,2 L-2,6 L-9,12 L-12,12 L-11,6 Z " fill="#FFFFFF" transform="translate(699,347)"/>
<path d="M0,0 L2,1 L2,11 L-2,19 L-7,24 L-6,18 L-1,9 Z " fill="#FFFFFF" transform="translate(764,339)"/>
<path d="M0,0 L3,0 L8,9 L7,12 L1,10 L-1,8 L-1,1 Z " fill="#FFFFFF" transform="translate(885,553)"/>
<path d="M0,0 L7,2 L9,4 L8,8 L2,10 L0,6 Z " fill="#FFFFFF" transform="translate(797,402)"/>
<path d="M0,0 L13,1 L16,2 L17,5 L15,6 L4,5 L0,2 Z " fill="#FFFFFF" transform="translate(747,438)"/>
<path d="M0,0 L5,0 L8,3 L10,0 L11,4 L5,11 L3,11 Z " fill="#FFFFFF" transform="translate(687,307)"/>
<path d="M0,0 L5,1 L7,5 L3,9 L-2,8 L-3,3 Z " fill="#FFFFFF" transform="translate(709,424)"/>
<path d="M0,0 L3,0 L7,6 L10,10 L6,11 L3,9 L-2,8 L-1,1 Z " fill="#FFFFFF" transform="translate(652,413)"/>
<path d="M0,0 L10,3 L11,5 L0,5 L-8,6 L-7,3 Z " fill="#FFFFFF" transform="translate(778,593)"/>
<path d="M0,0 L3,0 L1,4 L-1,5 L-15,5 L-16,3 L-9,1 Z " fill="#FFFFFF" transform="translate(787,438)"/>
<path d="M0,0 L7,1 L8,3 L5,6 L-1,6 L-6,7 L-4,2 Z " fill="#FFFFFF" transform="translate(832,495)"/>
<path d="M0,0 L5,0 L6,5 L4,8 L-3,7 L-3,2 Z " fill="#FFFFFF" transform="translate(818,401)"/>
<path d="M0,0 L2,0 L5,10 L13,12 L12,14 L6,13 L-1,10 L-1,3 Z " fill="#FFFFFF" transform="translate(669,570)"/>
<path d="M0,0 L15,1 L15,5 L12,7 L8,7 L9,3 L-3,3 Z " fill="#FFFFFF" transform="translate(795,508)"/>
<path d="M0,0 L9,0 L13,4 L13,6 L2,5 L0,4 Z " fill="#FFFFFF" transform="translate(697,496)"/>
<path d="M0,0 L1,0 L0,7 L-7,13 L-11,13 L-9,9 Z " fill="#FFFFFF" transform="translate(868,461)"/>
<path d="M0,0 L6,1 L5,5 L3,7 L-3,7 L-8,5 L-7,2 L-3,3 L-1,4 Z " fill="#FFFFFF" transform="translate(784,346)"/>
<path d="M0,0 L4,1 L8,6 L8,11 L6,13 L3,13 L2,7 Z " fill="#FFFFFF" transform="translate(882,333)"/>
<path d="M0,0 L3,0 L3,8 L-1,9 L-5,7 L-4,2 Z " fill="#FFFFFF" transform="translate(735,402)"/>
<path d="M0,0 L5,0 L7,2 L6,7 L1,8 L-2,5 Z " fill="#FFFFFF" transform="translate(714,401)"/>
<path d="M0,0 L8,0 L14,4 L13,7 L6,7 L3,3 L-1,1 Z " fill="#FFFFFF" transform="translate(899,338)"/>
<path d="M0,0 L3,1 L2,6 L-6,8 L-11,8 L-10,5 Z " fill="#FFFFFF" transform="translate(818,491)"/>
<path d="M0,0 L8,0 L8,2 L1,5 L-9,5 L-10,2 L-3,2 Z " fill="#FFFFFF" transform="translate(758,425)"/>
<path d="M0,0 L10,1 L13,4 L-5,4 L-4,1 Z " fill="#FFFFFF" transform="translate(765,240)"/>
<path d="M0,0 L4,2 L8,5 L-3,6 L-8,5 L-8,3 Z " fill="#FFFFFF" transform="translate(755,593)"/>
<path d="M0,0 L5,0 L8,2 L9,1 L14,1 L13,4 L9,6 L2,5 L0,3 Z " fill="#FFFFFF" transform="translate(746,347)"/>
<path d="M0,0 L7,0 L10,2 L6,5 L-3,4 L-6,2 Z " fill="#FFFFFF" transform="translate(810,312)"/>
<path d="M0,0 L1,2 L-3,10 L-8,11 L-9,8 L-4,2 Z " fill="#FFFFFF" transform="translate(752,334)"/>
<path d="M0,0 L10,1 L9,4 L6,5 L-1,5 L-5,3 L-5,1 Z " fill="#FFFFFF" transform="translate(721,312)"/>
<path d="M0,0 L9,1 L9,4 L4,5 L3,10 L-1,7 Z " fill="#FFFFFF" transform="translate(730,290)"/>
<path d="M0,0 L3,1 L5,4 L4,9 L2,10 L-4,10 L-2,6 Z " fill="#FFFFFF" transform="translate(879,413)"/>
<path d="M0,0 L5,2 L7,6 L-8,6 L-4,2 Z " fill="#FFFFFF" transform="translate(698,359)"/>
<path d="M0,0 L2,3 L2,13 L-2,11 L-4,9 L-3,4 Z " fill="#FFFFFF" transform="translate(620,346)"/>
<path d="M0,0 L4,1 L-1,7 L-7,11 L-9,10 L-5,4 Z " fill="#FFFFFF" transform="translate(784,550)"/>
<path d="M0,0 L6,0 L7,5 L4,9 L2,9 L-1,2 Z " fill="#FFFFFF" transform="translate(827,473)"/>
<path d="M0,0 L5,5 L11,11 L11,13 L6,12 L0,5 Z " fill="#FFFFFF" transform="translate(667,461)"/>
<path d="M0,0 L2,1 L-2,5 L-5,6 L-17,6 L-16,4 Z " fill="#FFFFFF" transform="translate(639,359)"/>
<path d="M0,0 L15,3 L17,4 L17,6 L6,6 L0,2 Z " fill="#FFFFFF" transform="translate(895,359)"/>
<path d="M0,0 L6,2 L11,4 L11,6 L-3,5 L-2,1 Z " fill="#FFFFFF" transform="translate(835,359)"/>
<path d="M0,0 L5,2 L9,6 L10,12 L6,10 L2,6 Z " fill="#FFFFFF" transform="translate(876,345)"/>
<path d="M0,0 L4,0 L2,4 L-8,6 L-11,4 L-9,2 Z " fill="#FFFFFF" transform="translate(726,274)"/>
<path d="M0,0 L8,0 L9,3 L16,2 L17,4 L15,5 L7,5 L1,2 Z " fill="#FFFFFF" transform="translate(771,425)"/>
<path d="M0,0 L8,1 L9,5 L11,5 L10,8 L6,7 L3,8 Z " fill="#FFFFFF" transform="translate(751,403)"/>
<path d="M0,0 L3,0 L3,3 L9,1 L10,5 L5,6 L-3,6 L-1,1 Z " fill="#FFFFFF" transform="translate(873,359)"/>
<path d="M0,0 L5,1 L9,5 L9,10 L4,8 L0,2 Z " fill="#FFFFFF" transform="translate(783,335)"/>
<path d="M0,0 L6,2 L5,5 L-4,6 L-5,1 Z " fill="#FFFFFF" transform="translate(722,501)"/>
<path d="M0,0 L3,0 L2,9 L0,13 L-2,12 L-2,4 Z " fill="#FFFFFF" transform="translate(665,408)"/>
<path d="M0,0 L3,1 L5,7 L-1,12 L-2,8 Z " fill="#FFFFFF" transform="translate(857,351)"/>
<path d="M0,0 L6,0 L7,5 L-3,5 L-2,1 Z " fill="#FFFFFF" transform="translate(717,548)"/>
<path d="M0,0 L4,2 L6,6 L5,7 L-3,7 L-3,4 Z " fill="#FFFFFF" transform="translate(766,358)"/>
<path d="M0,0 L11,0 L10,5 L3,4 L0,1 Z " fill="#FFFFFF" transform="translate(808,502)"/>
<path d="M0,0 L4,0 L3,5 L2,6 L-6,6 L-11,4 L-11,3 L0,2 Z " fill="#FFFFFF" transform="translate(868,343)"/>
<path d="M0,0 L2,0 L3,7 L1,10 L-3,9 L-2,3 Z " fill="#FFFFFF" transform="translate(893,539)"/>
<path d="M0,0 L4,4 L6,10 L1,11 L-1,7 Z " fill="#FFFFFF" transform="translate(641,538)"/>
<path d="M0,0 L9,0 L9,3 L4,6 L-2,7 L1,3 Z " fill="#FFFFFF" transform="translate(781,356)"/>
<path d="M0,0 L3,1 L4,3 L4,10 L1,13 L-1,12 Z " fill="#FFFFFF" transform="translate(850,352)"/>
<path d="M0,0 L4,2 L5,3 L5,8 L1,9 L-1,6 L-1,1 Z " fill="#FFFFFF" transform="translate(899,538)"/>
<path d="M0,0 L5,0 L5,6 L3,8 L0,8 L-1,1 Z " fill="#FFFFFF" transform="translate(704,473)"/>
<path d="M0,0 L29,0 L32,2 L-2,2 Z " fill="#FFFFFF" transform="translate(754,422)"/>
<path d="M0,0 L4,3 L6,0 L14,0 L11,3 L7,5 L1,5 L-1,1 Z " fill="#FFFFFF" transform="translate(643,402)"/>
<path d="M0,0 L4,0 L4,2 L-2,6 L-6,9 L-9,8 L-3,1 Z " fill="#FFFFFF" transform="translate(716,307)"/>
<path d="M0,0 L2,0 L2,8 L-2,9 L-4,8 L-3,3 Z " fill="#FFFFFF" transform="translate(635,538)"/>
<path d="M0,0 L8,0 L9,5 L8,6 L2,6 L2,2 Z " fill="#FFFFFF" transform="translate(753,339)"/>
<path d="M0,0 L7,1 L11,5 L5,6 L0,2 Z " fill="#FFFFFF" transform="translate(712,298)"/>
<path d="M0,0 L5,1 L4,6 L-4,5 L-2,1 Z " fill="#FFFFFF" transform="translate(747,518)"/>
<path d="M0,0 L1,4 L-3,6 L-14,6 L-16,5 L-15,3 L-4,3 Z " fill="#FFFFFF" transform="translate(648,465)"/>
<path d="M0,0 L5,0 L9,5 L1,5 L-2,3 L-2,1 Z " fill="#FFFFFF" transform="translate(685,449)"/>
<path d="M0,0 L5,2 L8,4 L7,8 L2,7 Z " fill="#FFFFFF" transform="translate(860,293)"/>
<path d="M0,0 L3,1 L6,7 L6,13 L2,8 L0,5 Z " fill="#FFFFFF" transform="translate(893,476)"/>
<path d="M0,0 L3,1 L2,5 L3,7 L-4,6 L-5,2 Z " fill="#FFFFFF" transform="translate(789,508)"/>
<path d="M0,0 L14,0 L19,1 L19,2 L9,3 L9,5 L7,5 L7,2 L0,1 Z " fill="#FFFFFF" transform="translate(883,472)"/>
<path d="M0,0 L3,0 L2,3 L-2,5 L-10,5 L-10,3 Z " fill="#FFFFFF" transform="translate(821,298)"/>
<path d="M0,0 L6,2 L6,4 L-1,5 L-4,5 L-3,1 Z " fill="#FFFFFF" transform="translate(816,548)"/>
<path d="M0,0 L1,3 L-3,5 L-12,6 L-14,4 L-1,1 Z " fill="#FFFFFF" transform="translate(720,541)"/>
<path d="M0,0 L8,0 L11,1 L10,4 L1,3 Z " fill="#FFFFFF" transform="translate(756,449)"/>
<path d="M0,0 L3,0 L2,10 L-1,9 L-2,2 Z " fill="#FFFFFF" transform="translate(734,449)"/>
<path d="M0,0 L7,0 L8,5 L1,6 L-1,1 Z M2,1 L2,4 L7,4 L7,2 Z " fill="#FFFFFF" transform="translate(892,412)"/>
<path d="M0,0 L4,1 L5,4 L3,8 L-2,4 Z " fill="#FFFFFF" transform="translate(734,357)"/>
<path d="M0,0 L5,3 L9,6 L9,8 L3,7 L0,5 Z " fill="#FFFFFF" transform="translate(771,290)"/>
<path d="M0,0 L3,1 L3,8 L0,5 L-3,8 L-6,8 L-4,4 Z " fill="#FFFFFF" transform="translate(729,357)"/>
<path d="M0,0 L5,0 L5,5 L0,6 L-1,1 Z " fill="#FFFFFF" transform="translate(1017,897)"/>
<path d="M0,0 L10,1 L12,5 L10,6 L0,1 Z " fill="#FFFFFF" transform="translate(878,402)"/>
<path d="M0,0 L14,0 L10,3 L2,3 L0,2 Z " fill="#FFFFFF" transform="translate(665,346)"/>
<path d="M0,0 L2,2 L2,12 L-1,11 L-1,1 Z " fill="#FFFFFF" transform="translate(1117,901)"/>
<path d="M0,0 L4,1 L-1,7 L-5,9 L-3,2 Z " fill="#FFFFFF" transform="translate(776,539)"/>
<path d="M0,0 L5,0 L7,4 L0,5 L-1,1 Z " fill="#FFFFFF" transform="translate(789,360)"/>
<path d="M0,0 L6,2 L12,7 L13,10 L8,8 L0,1 Z " fill="#FFFFFF" transform="translate(836,344)"/>
<path d="M0,0 L5,1 L5,5 L0,6 L-1,1 Z " fill="#FFFFFF" transform="translate(515,897)"/>
<path d="M0,0 L4,4 L4,7 L-1,6 L-3,2 Z " fill="#FFFFFF" transform="translate(788,580)"/>
<path d="M0,0 L4,0 L5,5 L-6,3 L-5,1 Z " fill="#FFFFFF" transform="translate(487,564)"/>
<path d="M0,0 L5,0 L4,3 L-5,4 L-5,1 Z " fill="#FFFFFF" transform="translate(775,449)"/>
<path d="M0,0 L3,1 L-1,3 L-2,4 L-9,4 L-9,1 Z " fill="#FFFFFF" transform="translate(791,431)"/>
<path d="M0,0 L2,0 L4,4 L4,7 L-5,6 L-1,3 Z " fill="#FFFFFF" transform="translate(844,592)"/>
<path d="M0,0 L5,2 L8,4 L15,5 L15,6 L4,6 L1,3 Z " fill="#FFFFFF" transform="translate(815,536)"/>
<path d="M0,0 L2,0 L1,5 L0,7 L-5,6 L-4,3 Z " fill="#FFFFFF" transform="translate(672,294)"/>
<path d="M0,0 L2,0 L0,8 L-4,8 L-2,3 Z " fill="#FFFFFF" transform="translate(678,570)"/>
<path d="M0,0 L5,1 L3,4 L-5,4 L-2,1 Z " fill="#FFFFFF" transform="translate(847,450)"/>
<path d="M0,0 L2,0 L1,8 L-2,11 L-1,1 Z " fill="#FFFFFF" transform="translate(720,428)"/>
<path d="M0,0 L4,1 L8,7 L7,9 L0,2 Z " fill="#FFFFFF" transform="translate(756,538)"/>
<path d="M0,0 L6,0 L4,4 L4,10 L2,10 Z " fill="#FFFFFF" transform="translate(892,425)"/>
<path d="M0,0 L4,2 L8,8 L2,6 Z " fill="#FFFFFF" transform="translate(732,540)"/>
<path d="M0,0 L16,2 L16,3 L5,4 L0,3 Z " fill="#FFFFFF" transform="translate(889,467)"/>
<path d="M0,0 L4,0 L3,3 L-4,4 L-7,1 Z " fill="#FFFFFF" transform="translate(920,360)"/>
<path d="M0,0 L4,1 L4,4 L-4,4 Z " fill="#FFFFFF" transform="translate(824,595)"/>
<path d="M0,0 L4,1 L3,4 L-3,5 L-1,1 Z " fill="#FFFFFF" transform="translate(669,327)"/>
<path d="M0,0 L6,0 L4,4 L-1,3 Z " fill="#FFFFFF" transform="translate(745,583)"/>
<path d="M0,0 L5,1 L3,6 L-2,6 L-2,3 L2,4 Z " fill="#FFFFFF" transform="translate(639,412)"/>
<path d="M0,0 L2,0 L2,11 L0,11 Z " fill="#FFFFFF" transform="translate(417,902)"/>
<path d="M0,0 L2,0 L5,5 L-2,5 Z " fill="#FFFFFF" transform="translate(711,594)"/>
<path d="M0,0 L2,1 L0,5 L-3,6 L-4,2 Z " fill="#FFFFFF" transform="translate(700,462)"/>
<path d="M0,0 L8,0 L9,3 L0,2 Z " fill="#FFFFFF" transform="translate(809,462)"/>
<path d="M0,0 L7,0 L6,3 L-1,3 Z " fill="#FFFFFF" transform="translate(748,432)"/>
<path d="M0,0 L5,0 L7,4 L-2,2 Z " fill="#FFFFFF" transform="translate(777,316)"/>
<path d="M0,0 L5,3 L3,7 L1,7 L-1,1 Z " fill="#FFFFFF" transform="translate(740,295)"/>
<path d="M0,0 L5,0 L2,11 L1,11 L1,2 Z " fill="#FFFFFF" transform="translate(640,425)"/>
<path d="M0,0 L6,0 L7,3 L0,3 Z " fill="#FFFFFF" transform="translate(663,303)"/>
<path d="M0,0 L2,3 L1,5 L0,4 L-7,3 L-7,1 Z " fill="#FFFFFF" transform="translate(853,554)"/>
<path d="M0,0 L10,0 L9,3 L1,2 Z " fill="#FFFFFF" transform="translate(819,544)"/>
<path d="M0,0 L5,1 L1,4 L-3,4 L-2,1 Z " fill="#FFFFFF" transform="translate(754,316)"/>
<path d="M0,0 L3,0 L2,5 L-2,4 Z " fill="#FFFFFF" transform="translate(676,297)"/>
<path d="M0,0 L2,0 L2,2 L0,3 L-6,3 L-8,1 Z " fill="#FFFFFF" transform="translate(763,457)"/>
<path d="M0,0 L10,1 L9,3 L2,3 Z " fill="#FFFFFF" transform="translate(771,457)"/>
<path d="M0,0 L6,1 L6,3 L-1,3 Z " fill="#FFFFFF" transform="translate(613,360)"/>
<path d="M0,0 L9,1 L9,3 L-1,2 Z " fill="#FFFFFF" transform="translate(859,332)"/>
<path d="M0,0 L5,1 L6,4 L0,3 Z " fill="#FFFFFF" transform="translate(863,327)"/>
<path d="M0,0 L5,0 L4,2 L-5,3 L-3,1 Z " fill="#FFFFFF" transform="translate(784,559)"/>
<path d="M0,0 L6,0 L5,2 L-2,3 L-2,1 Z " fill="#FFFFFF" transform="translate(722,462)"/>
<path d="M0,0 L3,2 L4,7 L0,9 L1,5 Z " fill="#FFFFFF" transform="translate(703,460)"/>
<path d="M0,0 L4,1 L5,5 L1,4 Z " fill="#FFFFFF" transform="translate(861,436)"/>
<path d="M0,0 L3,3 L3,6 L-1,6 Z " fill="#FFFFFF" transform="translate(784,286)"/>
<path d="M0,0 L2,0 L6,6 L2,5 L0,3 Z " fill="#FFFFFF" transform="translate(992,569)"/>
<path d="M0,0 L9,0 L9,2 L0,2 Z " fill="#FFFFFF" transform="translate(793,513)"/>
<path d="M0,0 L2,1 L-1,4 L-4,5 L-6,4 L-5,2 Z " fill="#FFFFFF" transform="translate(792,292)"/>
<path d="M0,0 L2,0 L1,4 L-2,5 L-2,1 Z " fill="#FFFFFF" transform="translate(718,360)"/>
<path d="M0,0 L7,0 L8,2 L0,2 Z " fill="#FFFFFF" transform="translate(687,333)"/>
<path d="M0,0 L5,0 L3,4 L0,3 Z " fill="#FFFFFF" transform="translate(696,515)"/>
<path d="M0,0 L3,1 L4,5 L1,5 Z " fill="#FFFFFF" transform="translate(811,360)"/>
<path d="M0,0 L4,4 L3,7 L0,3 Z " fill="#FFFFFF" transform="translate(769,272)"/>
<path d="M0,0 L2,4 L1,5 L-4,5 Z " fill="#FFFFFF" transform="translate(861,593)"/>
<path d="M0,0 L4,1 L-1,3 L-4,2 Z " fill="#FFFFFF" transform="translate(699,430)"/>
<path d="M0,0 L7,1 L7,2 L0,3 Z " fill="#FFFFFF" transform="translate(664,343)"/>
<path d="M0,0 L2,0 L4,5 L0,4 Z " fill="#FFFFFF" transform="translate(830,464)"/>
<path d="M0,0 L6,0 L7,2 L0,2 Z " fill="#FFFFFF" transform="translate(734,460)"/>
<path d="M0,0 L3,0 L3,2 L-2,3 L-2,1 Z " fill="#FFFFFF" transform="translate(652,512)"/>
<path d="M0,0 L7,1 L6,3 L0,2 Z " fill="#FFFFFF" transform="translate(744,462)"/>
<path d="M0,0 L5,1 L7,3 L0,2 Z " fill="#FFFFFF" transform="translate(834,430)"/>
<path d="M0,0 L2,1 L0,8 L-1,6 Z " fill="#FFFFFF" transform="translate(827,402)"/>
<path d="M0,0 L4,2 L5,4 L1,3 Z " fill="#FFFFFF" transform="translate(706,291)"/>
<path d="M0,0 L10,0 L10,1 L0,1 Z " fill="#FFFFFF" transform="translate(705,540)"/>
<path d="M0,0 L1,4 L-2,5 Z " fill="#FFFFFF" transform="translate(893,401)"/>
<path d="M0,0 L3,2 L3,5 L1,5 Z " fill="#FFFFFF" transform="translate(731,348)"/>
<path d="M0,0 L1,2 L-5,3 L-3,1 Z " fill="#FFFFFF" transform="translate(628,550)"/>
<path d="M0,0 L3,3 L-3,2 Z " fill="#FFFFFF" transform="translate(743,431)"/>
<path d="M0,0 L2,1 L3,6 L1,5 Z " fill="#FFFFFF" transform="translate(785,476)"/>
<path d="M0,0 L4,1 L4,3 L0,2 Z " fill="#FFFFFF" transform="translate(561,467)"/>
<path d="M0,0 L5,0 L6,2 L0,1 Z " fill="#FFFFFF" transform="translate(634,454)"/>
<path d="M0,0 L3,0 L2,3 L0,2 Z " fill="#FFFFFF" transform="translate(806,549)"/>
<path d="M0,0 L2,0 L1,5 L0,5 Z " fill="#FFFFFF" transform="translate(708,402)"/>
<path d="M0,0 L2,0 L1,4 Z " fill="#FFFFFF" transform="translate(668,315)"/>
<path d="M0,0 L5,1 L1,2 Z " fill="#FFFFFF" transform="translate(743,293)"/>
<path d="M0,0 L5,0 L1,2 Z " fill="#FFFFFF" transform="translate(773,270)"/>
<path d="M0,0 L5,0 L4,2 Z " fill="#FFFFFF" transform="translate(759,270)"/>
<path d="M0,0 L6,0 L6,1 L0,1 Z " fill="#FFFFFF" transform="translate(870,549)"/>
<path d="M0,0 L1,3 L-2,2 Z " fill="#FFFFFF" transform="translate(650,545)"/>
<path d="M0,0 L2,1 L1,5 Z " fill="#FFFFFF" transform="translate(720,518)"/>
<path d="M0,0 L2,0 L2,3 L0,3 Z " fill="#FFFFFF" transform="translate(744,512)"/>
<path d="M0,0 L3,1 L3,3 L1,3 Z " fill="#FFFFFF" transform="translate(986,466)"/>
<path d="M0,0 L3,4 L0,3 Z " fill="#FFFFFF" transform="translate(709,407)"/>
<path d="M0,0 L6,0 L6,1 L0,1 Z " fill="#FFFFFF" transform="translate(788,307)"/>
<path d="M0,0 L3,1 L3,3 L1,3 Z " fill="#FFFFFF" transform="translate(791,277)"/>
<path d="M0,0 L0,3 L-2,2 Z " fill="#FFFFFF" transform="translate(874,558)"/>
<path d="M0,0 L2,1 L-1,3 Z " fill="#FFFFFF" transform="translate(877,554)"/>
<path d="M0,0 L5,0 L5,1 L0,1 Z " fill="#FFFFFF" transform="translate(665,549)"/>
<path d="M0,0 L3,1 L0,2 Z " fill="#FFFFFF" transform="translate(620,362)"/>
<path d="M0,0 L1,4 L-1,2 Z " fill="#FFFFFF" transform="translate(866,315)"/>
<path d="M0,0 L5,0 L5,1 L0,1 Z " fill="#FFFFFF" transform="translate(742,307)"/>
<path d="M0,0 L2,0 L1,3 Z " fill="#FFFFFF" transform="translate(737,300)"/>
<path d="M0,0 L3,1 L0,2 Z " fill="#FFFFFF" transform="translate(709,300)"/>
<path d="M0,0 L3,1 L0,2 Z " fill="#FFFFFF" transform="translate(884,547)"/>
<path d="M0,0 L3,1 L0,1 Z " fill="#FFFFFF" transform="translate(672,517)"/>
<path d="M0,0 L2,0 L2,2 L0,2 Z " fill="#FFFFFF" transform="translate(768,425)"/>
<path d="M0,0 L2,1 L1,3 Z " fill="#FFFFFF" transform="translate(636,411)"/>
<path d="M0,0 L2,1 L1,3 Z " fill="#FFFFFF" transform="translate(818,361)"/>
<path d="M0,0 L2,2 L0,3 Z " fill="#FFFFFF" transform="translate(783,293)"/>
<path d="M0,0 L3,1 Z " fill="#FFFFFF" transform="translate(748,559)"/>
<path d="M0,0 L3,1 Z " fill="#FFFFFF" transform="translate(740,548)"/>
<path d="M0,0 L1,2 L-1,1 Z " fill="#FFFFFF" transform="translate(716,538)"/>
<path d="M0,0 L1,2 L-1,1 Z " fill="#FFFFFF" transform="translate(718,536)"/>
<path d="M0,0 L3,1 Z " fill="#FFFFFF" transform="translate(1019,527)"/>
<path d="M0,0 Z " fill="#FFFFFF" transform="translate(746,498)"/>
<path d="M0,0 L3,1 Z " fill="#FFFFFF" transform="translate(634,458)"/>
<path d="M0,0 Z " fill="#FFFFFF" transform="translate(898,454)"/>
<path d="M0,0 L3,1 Z " fill="#FFFFFF" transform="translate(786,424)"/>
<path d="M0,0 L3,1 Z " fill="#FFFFFF" transform="translate(747,424)"/>
<path d="M0,0 L3,1 Z " fill="#FFFFFF" transform="translate(742,330)"/>
<path d="M0,0 L2,0 L1,2 Z " fill="#FFFFFF" transform="translate(833,281)"/>
<path d="M0,0 L2,1 Z " fill="#FFFFFF" transform="translate(642,598)"/>
<path d="M0,0 L2,1 Z " fill="#FFFFFF" transform="translate(892,597)"/>
<path d="M0,0 Z " fill="#FFFFFF" transform="translate(657,551)"/>
<path d="M0,0 L2,1 Z " fill="#FFFFFF" transform="translate(743,549)"/>
<path d="M0,0 L2,1 Z " fill="#FFFFFF" transform="translate(670,516)"/>
<path d="M0,0 L2,1 Z " fill="#FFFFFF" transform="translate(1093,515)"/>
<path d="M0,0 L2,1 Z " fill="#FFFFFF" transform="translate(440,515)"/>
<path d="M0,0 Z " fill="#FFFFFF" transform="translate(713,503)"/>
<path d="M0,0 Z " fill="#FFFFFF" transform="translate(747,501)"/>
<path d="M0,0 L2,1 Z " fill="#FFFFFF" transform="translate(984,493)"/>
<path d="M0,0 L2,1 Z " fill="#FFFFFF" transform="translate(549,493)"/>
<path d="M0,0 L2,1 Z " fill="#FFFFFF" transform="translate(777,489)"/>
<path d="M0,0 L2,1 Z " fill="#FFFFFF" transform="translate(757,489)"/>
<path d="M0,0 L2,1 Z " fill="#FFFFFF" transform="translate(792,462)"/>
<path d="M0,0 L2,1 Z " fill="#FFFFFF" transform="translate(882,425)"/>
<path d="M0,0 L2,1 Z " fill="#FFFFFF" transform="translate(745,425)"/>
<path d="M0,0 L2,1 Z " fill="#FFFFFF" transform="translate(894,356)"/>
<path d="M0,0 L2,1 Z " fill="#FFFFFF" transform="translate(834,343)"/>
<path d="M0,0 L2,1 Z " fill="#FFFFFF" transform="translate(699,343)"/>
<path d="M0,0 Z " fill="#FFFFFF" transform="translate(697,334)"/>
<path d="M0,0 Z " fill="#FFFFFF" transform="translate(773,591)"/>
<path d="M0,0 Z " fill="#FFFFFF" transform="translate(903,576)"/>
<path d="M0,0 Z " fill="#FFFFFF" transform="translate(1059,568)"/>
<path d="M0,0 Z " fill="#FFFFFF" transform="translate(476,568)"/>
<path d="M0,0 Z " fill="#FFFFFF" transform="translate(1058,567)"/>
<path d="M0,0 Z " fill="#FFFFFF" transform="translate(1057,566)"/>
<path d="M0,0 Z " fill="#FFFFFF" transform="translate(743,561)"/>
<path d="M0,0 Z " fill="#FFFFFF" transform="translate(662,558)"/>
<path d="M0,0 Z " fill="#FFFFFF" transform="translate(875,557)"/>
<path d="M0,0 Z " fill="#FFFFFF" transform="translate(661,557)"/>
<path d="M0,0 Z " fill="#FFFFFF" transform="translate(660,556)"/>
<path d="M0,0 Z " fill="#FFFFFF" transform="translate(879,553)"/>
<path d="M0,0 Z " fill="#FFFFFF" transform="translate(658,553)"/>
<path d="M0,0 Z " fill="#FFFFFF" transform="translate(880,552)"/>
<path d="M0,0 Z " fill="#FFFFFF" transform="translate(881,551)"/>
<path d="M0,0 Z " fill="#FFFFFF" transform="translate(882,550)"/>
<path d="M0,0 Z " fill="#FFFFFF" transform="translate(656,550)"/>
<path d="M0,0 Z " fill="#FFFFFF" transform="translate(883,549)"/>
<path d="M0,0 Z " fill="#FFFFFF" transform="translate(879,549)"/>
<path d="M0,0 Z " fill="#FFFFFF" transform="translate(810,546)"/>
<path d="M0,0 Z " fill="#FFFFFF" transform="translate(697,523)"/>
<path d="M0,0 Z " fill="#FFFFFF" transform="translate(815,520)"/>
<path d="M0,0 Z " fill="#FFFFFF" transform="translate(1095,516)"/>
<path d="M0,0 Z " fill="#FFFFFF" transform="translate(704,514)"/>
<path d="M0,0 Z " fill="#FFFFFF" transform="translate(695,511)"/>
<path d="M0,0 Z " fill="#FFFFFF" transform="translate(621,495)"/>
<path d="M0,0 Z " fill="#FFFFFF" transform="translate(983,492)"/>
<path d="M0,0 Z " fill="#FFFFFF" transform="translate(551,492)"/>
<path d="M0,0 Z " fill="#FFFFFF" transform="translate(903,458)"/>
<path d="M0,0 Z " fill="#FFFFFF" transform="translate(902,455)"/>
<path d="M0,0 Z " fill="#FFFFFF" transform="translate(901,454)"/>
<path d="M0,0 Z " fill="#FFFFFF" transform="translate(893,448)"/>
<path d="M0,0 Z " fill="#FFFFFF" transform="translate(796,447)"/>
<path d="M0,0 Z " fill="#FFFFFF" transform="translate(893,446)"/>
<path d="M0,0 Z " fill="#FFFFFF" transform="translate(846,445)"/>
<path d="M0,0 Z " fill="#FFFFFF" transform="translate(847,444)"/>
<path d="M0,0 Z " fill="#FFFFFF" transform="translate(689,444)"/>
<path d="M0,0 Z " fill="#FFFFFF" transform="translate(694,433)"/>
<path d="M0,0 Z " fill="#FFFFFF" transform="translate(878,412)"/>
<path d="M0,0 Z " fill="#FFFFFF" transform="translate(716,412)"/>
<path d="M0,0 Z " fill="#FFFFFF" transform="translate(712,411)"/>
<path d="M0,0 Z " fill="#FFFFFF" transform="translate(831,405)"/>
<path d="M0,0 Z " fill="#FFFFFF" transform="translate(830,404)"/>
<path d="M0,0 Z " fill="#FFFFFF" transform="translate(642,355)"/>
<path d="M0,0 Z " fill="#FFFFFF" transform="translate(883,347)"/>
<path d="M0,0 Z " fill="#FFFFFF" transform="translate(648,345)"/>
<path d="M0,0 Z " fill="#FFFFFF" transform="translate(770,338)"/>
<path d="M0,0 Z " fill="#FFFFFF" transform="translate(836,337)"/>
<path d="M0,0 Z " fill="#FFFFFF" transform="translate(837,336)"/>
<path d="M0,0 Z " fill="#FFFFFF" transform="translate(683,336)"/>
<path d="M0,0 Z " fill="#FFFFFF" transform="translate(682,335)"/>
<path d="M0,0 Z " fill="#FFFFFF" transform="translate(767,333)"/>
<path d="M0,0 Z " fill="#FFFFFF" transform="translate(797,328)"/>
<path d="M0,0 Z " fill="#FFFFFF" transform="translate(802,300)"/>
<path d="M0,0 Z " fill="#FFFFFF" transform="translate(770,289)"/>
<path d="M0,0 Z " fill="#FFFFFF" transform="translate(769,288)"/>
<path d="M0,0 Z " fill="#FFFFFF" transform="translate(738,285)"/>
<path d="M0,0 Z " fill="#FFFFFF" transform="translate(801,274)"/>
</svg>
