<?xml version="1.0" encoding="UTF-8"?>
<!-- Generator: visioncortex VTracer 0.6.12 -->
<svg version="1.1" xmlns="http://www.w3.org/2000/svg" width="1264" height="848">
<path d="M0,0 L336,0 L336,28 L335,42 L496,42 L495,18 L495,0 L825,0 L840,55 L846,77 L845,80 L838,80 L843,86 L846,97 L851,98 L857,119 L858,127 L807,128 L787,128 L785,123 L784,116 L787,115 L786,107 L794,107 L794,98 L789,97 L778,91 L769,83 L738,83 L660,84 L617,85 L613,105 L614,111 L616,114 L619,107 L620,107 L622,129 L598,129 L597,128 L592,73 L592,68 L609,68 L608,64 L608,55 L500,55 L500,68 L517,68 L520,119 L520,129 L459,130 L458,115 L457,80 L457,58 L472,58 L471,46 L361,45 L361,58 L375,58 L376,59 L375,117 L374,129 L312,129 L315,73 L316,69 L331,68 L332,55 L224,55 L224,63 L223,68 L240,68 L240,77 L236,125 L235,129 L198,129 L199,109 L203,110 L210,103 L212,103 L215,111 L218,108 L218,101 L216,91 L216,84 L178,84 L98,83 L61,83 L52,91 L37,99 L36,107 L45,107 L44,114 L47,117 L45,127 L41,128 L-30,127 L-29,119 L-24,98 L-23,97 L-14,97 L-12,86 L-7,80 L-15,80 L-19,79 L-15,61 L-1,3 Z " fill="#FFFFFF" transform="translate(224,478)"/>
<path d="M0,0 L8,0 L8,4 L12,4 L12,10 L17,10 L17,5 L21,4 L22,0 L31,0 L31,4 L35,4 L35,10 L40,10 L40,5 L44,4 L45,1 L47,0 L54,0 L55,3 L58,5 L57,10 L63,10 L63,5 L67,4 L69,0 L77,0 L78,3 L81,4 L81,10 L86,10 L86,5 L90,4 L91,0 L100,0 L100,4 L105,5 L104,10 L109,9 L110,4 L115,4 L115,0 L124,0 L124,4 L128,4 L128,10 L134,10 L134,5 L137,4 L139,0 L147,0 L149,4 L152,5 L152,10 L157,10 L157,5 L162,4 L163,0 L171,1 L171,4 L175,4 L175,10 L182,10 L182,5 L186,5 L186,1 L195,1 L195,4 L199,5 L199,10 L205,10 L205,5 L209,4 L210,1 L218,1 L219,4 L223,5 L223,10 L229,10 L229,5 L233,4 L234,1 L242,1 L242,5 L247,5 L247,10 L253,10 L253,5 L257,5 L258,1 L266,1 L266,4 L271,5 L271,10 L277,10 L277,5 L281,4 L282,1 L290,1 L291,4 L295,5 L295,10 L301,10 L301,5 L305,4 L306,1 L314,1 L314,4 L319,5 L319,10 L325,10 L325,5 L329,5 L330,1 L338,1 L339,4 L343,5 L343,10 L349,10 L349,5 L353,5 L353,1 L362,1 L363,4 L366,5 L367,9 L373,10 L373,5 L377,5 L377,1 L386,1 L386,5 L391,5 L391,10 L397,10 L397,5 L401,5 L401,1 L410,1 L410,5 L414,5 L414,10 L421,10 L421,5 L425,5 L425,1 L434,1 L434,5 L439,5 L439,10 L445,10 L445,5 L449,5 L449,1 L457,1 L458,4 L462,5 L462,10 L469,10 L469,5 L473,5 L474,1 L482,1 L482,5 L487,5 L487,10 L493,10 L493,5 L497,5 L497,1 L506,1 L507,4 L511,5 L511,10 L517,10 L517,5 L521,5 L521,1 L530,1 L530,5 L535,5 L535,10 L541,10 L541,5 L545,4 L546,1 L554,1 L555,4 L559,5 L559,10 L565,10 L565,5 L569,5 L569,1 L578,1 L578,5 L583,6 L583,9 L589,10 L589,5 L592,4 L593,1 L602,1 L602,4 L607,6 L607,10 L613,10 L613,5 L616,4 L618,0 L625,0 L626,4 L630,5 L630,10 L636,9 L636,5 L640,4 L642,0 L649,0 L650,3 L654,4 L655,9 L660,10 L660,5 L664,5 L665,0 L671,0 L673,1 L674,4 L678,5 L678,10 L684,10 L684,5 L688,5 L688,1 L697,1 L698,4 L702,5 L702,10 L707,9 L707,5 L711,5 L711,0 L720,0 L721,5 L726,5 L726,10 L731,10 L731,5 L735,5 L735,1 L744,1 L745,4 L749,5 L749,10 L754,10 L754,5 L757,4 L758,1 L767,1 L768,4 L772,5 L773,9 L777,10 L777,5 L781,5 L781,1 L791,1 L791,5 L795,5 L795,10 L800,10 L800,5 L804,5 L804,1 L809,1 L814,20 L814,23 L-9,23 L-7,12 L-4,4 L-1,4 Z " fill="#FFFFFF" transform="translate(234,453)"/>
<path d="M0,0 L9,0 L9,4 L13,5 L12,10 L17,10 L17,5 L22,4 L23,0 L32,0 L32,4 L36,5 L35,10 L39,9 L41,4 L44,3 L45,0 L54,0 L54,4 L58,4 L57,10 L62,10 L63,4 L67,3 L68,0 L77,0 L77,4 L81,5 L80,10 L84,9 L86,4 L90,4 L91,0 L100,0 L99,4 L103,4 L103,10 L108,10 L108,5 L111,4 L113,0 L122,0 L122,4 L126,5 L125,10 L130,10 L130,5 L135,4 L136,0 L145,0 L145,4 L148,4 L148,10 L152,9 L153,5 L157,5 L158,0 L167,0 L167,4 L171,4 L171,10 L175,10 L176,4 L179,4 L181,0 L190,0 L192,4 L194,6 L193,10 L198,10 L199,5 L202,4 L204,0 L213,0 L213,4 L217,5 L217,9 L219,10 L217,21 L197,103 L193,104 L142,98 L132,95 L122,89 L124,85 L125,83 L121,81 L118,80 L117,82 L113,80 L101,71 L91,62 L83,53 L78,45 L79,37 L74,34 L71,31 L67,31 L67,38 L58,37 L-4,25 L-7,24 L-7,9 L-5,4 L-1,4 Z " fill="#FFFFFF" transform="translate(7,453)"/>
<path d="M0,0 L3,0 L3,4 L7,4 L8,10 L12,10 L12,5 L16,5 L16,0 L25,0 L26,5 L30,5 L30,10 L35,10 L35,5 L39,5 L39,1 L48,1 L49,4 L53,5 L53,10 L58,10 L58,5 L61,5 L61,0 L70,1 L71,4 L76,6 L76,10 L81,10 L80,6 L84,5 L84,1 L93,1 L93,5 L98,5 L98,10 L103,10 L102,5 L106,5 L106,1 L115,1 L117,5 L120,6 L120,10 L125,10 L125,6 L128,6 L128,1 L137,1 L138,6 L142,6 L144,10 L147,11 L147,6 L150,6 L150,1 L159,1 L160,6 L164,6 L166,10 L169,11 L169,6 L172,6 L172,1 L181,1 L182,6 L187,7 L187,11 L191,11 L191,6 L195,6 L194,2 L204,2 L205,5 L209,7 L209,11 L214,11 L213,6 L217,6 L216,2 L220,2 L220,24 L204,28 L158,37 L157,30 L152,31 L150,35 L147,36 L147,45 L140,55 L129,67 L115,79 L111,81 L108,79 L105,82 L103,82 L107,86 L106,89 L94,95 L87,97 L32,103 L27,102 L7,27 L0,2 Z " fill="#FFFFFF" transform="translate(1044,454)"/>
<path d="M0,0 L11,1 L43,4 L75,5 L606,5 L641,4 L674,1 L689,0 L687,3 L666,9 L641,13 L611,15 L79,15 L49,13 L24,9 L9,5 L0,2 Z " fill="#FFFFFF" transform="translate(294,345)"/>
<path d="M0,0 L264,0 L278,7 L293,10 L305,11 L334,11 L370,8 L400,3 L408,2 L404,5 L384,11 L361,15 L351,16 L138,16 L130,15 L126,16 L-82,16 L-106,13 L-125,9 L-144,2 L-140,1 L-116,6 L-91,9 L-78,10 L-31,10 L-15,7 L-3,2 Z " fill="#FFFFFF" transform="translate(507,287)"/>
<path d="M0,0 L11,1 L77,12 L82,17 L91,28 L102,38 L119,50 L130,56 L130,57 L115,56 L6,44 L0,43 Z " fill="#FFFFFF" transform="translate(0,492)"/>
<path d="M0,0 L6,0 L6,44 L-7,46 L-100,56 L-108,56 L-103,52 L-91,44 L-81,36 L-68,23 L-59,11 L-39,7 Z " fill="#FFFFFF" transform="translate(1258,493)"/>
<path d="M0,0 L5,0 L6,1 L6,6 L3,10 L2,13 L5,13 L5,16 L238,16 L238,14 L241,14 L239,8 L237,2 L239,0 L243,1 L247,5 L251,6 L250,1 L253,2 L253,7 L256,8 L258,12 L257,18 L262,20 L277,26 L294,29 L317,29 L344,26 L359,24 L359,21 L364,21 L363,25 L386,21 L400,18 L400,22 L386,26 L360,30 L326,33 L292,33 L271,30 L259,25 L253,22 L-10,22 L-24,29 L-40,32 L-89,32 L-119,29 L-143,25 L-155,22 L-156,18 L-148,19 L-122,24 L-119,25 L-121,20 L-115,20 L-115,23 L-89,27 L-80,28 L-45,28 L-28,24 L-14,17 L-15,12 L-12,7 L-10,7 L-9,1 L-7,1 L-7,6 L-1,5 Z " fill="#FFFFFF" transform="translate(517,264)"/>
<path d="M0,0 L21,0 L23,7 L28,37 L18,38 L8,38 L6,29 L6,24 L-13,24 L-12,37 L-13,37 L-15,25 L-33,24 L-32,38 L-58,38 L-60,25 L-79,25 L-78,39 L-80,39 L-82,26 L-100,25 L-99,31 L-99,39 L-119,39 L-122,7 L-122,2 L-75,1 Z M-45,3 L-48,5 L-46,22 L-37,22 L-38,8 L-39,3 Z M-34,3 L-33,8 L-18,8 L-19,3 Z M-15,3 L-14,9 L-14,17 L-13,21 L2,21 L1,10 L0,8 L0,3 Z M4,3 L6,20 L7,21 L17,21 L16,7 L15,3 Z M-115,4 L-114,19 L-113,23 L-105,23 L-102,21 L-104,4 Z M-99,4 L-98,21 L-97,22 L-84,22 L-84,10 L-85,4 Z M-59,4 L-57,22 L-49,22 L-50,8 L-51,4 Z M-33,9 L-33,16 L-31,22 L-16,21 L-18,9 Z " fill="#FFFFFF" transform="translate(985,593)"/>
<path d="M0,0 L16,1 L208,20 L210,21 L209,29 L208,30 L196,30 L25,17 L1,15 L0,14 Z " fill="#FFFFFF" transform="translate(0,543)"/>
<path d="M0,0 L20,0 L89,1 L132,2 L132,11 L129,39 L110,39 L110,30 L111,25 L102,26 L100,39 L99,39 L99,25 L80,25 L79,37 L78,38 L53,38 L53,30 L54,24 L35,24 L33,37 L32,37 L33,24 L15,24 L13,37 L12,38 L1,38 L-7,37 L-1,1 Z M6,2 L4,9 L3,21 L14,21 L16,8 L16,3 Z M20,3 L20,8 L35,8 L35,3 Z M39,3 L39,8 L54,8 L55,3 Z M60,3 L58,15 L58,22 L66,22 L67,20 L68,4 L67,3 Z M72,3 L71,4 L69,22 L78,22 L80,4 L76,3 Z M86,3 L85,4 L85,9 L100,9 L101,4 Z M114,4 L113,5 L112,23 L123,23 L125,4 Z M20,9 L18,16 L18,21 L33,21 L34,20 L35,9 Z M39,9 L37,16 L37,21 L43,22 L52,22 L53,21 L54,10 L50,9 Z M84,10 L83,22 L99,22 L100,10 Z " fill="#FFFFFF" transform="translate(273,593)"/>
<path d="M0,0 L54,0 L137,1 L152,2 L150,7 L143,15 L138,18 L-21,16 L-18,13 L-9,8 Z " fill="#FFFFFF" transform="translate(285,562)"/>
<path d="M0,0 L48,0 L56,7 L70,14 L70,16 L-12,17 L-87,17 L-95,10 L-100,4 L-100,2 L-76,1 Z " fill="#FFFFFF" transform="translate(944,562)"/>
<path d="M0,0 L7,0 L7,14 L-107,23 L-179,28 L-186,28 L-188,19 L-173,17 Z " fill="#FFFFFF" transform="translate(1257,546)"/>
<path d="M0,0 L2,1 L1,6 L-35,10 L-47,11 L-73,12 L-328,12 L-325,7 L-116,6 L-116,2 L-111,3 L-110,7 L-45,4 L-45,1 L-40,1 L-39,5 L-12,2 Z " fill="#FFFFFF" transform="translate(983,337)"/>
<path d="M0,0 L9,1 L30,4 L42,5 L41,1 L46,0 L46,4 L60,4 L102,6 L112,7 L113,1 L117,1 L117,5 L327,6 L329,11 L64,11 L28,9 L3,6 L0,4 Z " fill="#FFFFFF" transform="translate(294,338)"/>
<path d="M0,0 L120,0 L120,14 L64,14 L63,13 L62,4 L59,4 L58,14 L0,14 Z " fill="#FFFFFF" transform="translate(579,382)"/>
<path d="M0,0 L155,0 L156,10 L157,40 L156,41 L-1,41 L-1,17 Z M4,4 L3,36 L4,37 L152,37 L152,17 L151,4 Z " fill="#FFFFFF" transform="translate(562,478)"/>
<path d="M0,0 L9,1 L76,14 L76,6 L80,8 L81,10 L85,12 L84,20 L92,31 L98,38 L109,47 L122,57 L127,56 L129,57 L129,60 L127,61 L127,63 L138,70 L136,71 L124,65 L112,57 L99,47 L85,33 L79,25 L39,18 L0,11 Z " fill="#FFFFFF" transform="translate(0,479)"/>
<path d="M0,0 L18,0 L41,1 L40,11 L30,54 L50,54 L51,46 L54,30 L46,31 L37,31 L38,27 L56,27 L57,19 L61,4 L63,5 L59,25 L52,55 L51,56 L16,59 L-26,62 L-34,62 L-33,58 L-14,57 L-10,38 L-1,2 Z M4,2 L-1,20 L-9,52 L-9,56 L7,55 L19,5 L19,3 Z M24,3 L20,17 L12,51 L12,55 L26,54 L37,7 L36,3 Z " fill="#FFFFFF" transform="translate(56,585)"/>
<path d="M0,0 L5,1 L19,55 L19,58 L38,59 L39,63 L-46,57 L-48,52 L-58,7 L-56,5 L-52,19 L-51,28 L-47,27 L-32,28 L-32,31 L-49,32 L-45,50 L-45,54 L-27,55 L-24,56 L-35,11 L-37,2 L-30,1 Z M-14,3 L-13,11 L-2,55 L-1,56 L14,57 L13,49 L2,5 L1,3 Z M-22,3 L-32,4 L-30,16 L-21,54 L-20,55 L-7,56 L-8,47 L-19,3 Z " fill="#FFFFFF" transform="translate(1217,585)"/>
<path d="M0,0 L71,0 L74,38 L74,46 L69,46 L67,19 L53,19 L55,39 L55,46 L52,46 L50,23 L50,19 L36,19 L37,33 L37,47 L42,47 L43,50 L38,50 L38,55 L35,54 L35,50 L31,50 L31,47 L34,47 L33,30 L33,19 L18,19 L19,30 L19,50 L15,51 L14,55 L11,54 L11,50 L7,50 L7,47 L16,47 L15,19 L1,19 L1,12 L20,12 L20,3 L2,3 L0,2 Z M23,2 L22,3 L22,11 L23,12 L44,12 L44,3 L43,2 Z M52,2 L46,3 L47,12 L69,12 L69,3 L57,2 Z " fill="#FFFFFF" transform="translate(711,406)"/>
<path d="M0,0 L71,0 L71,2 L51,2 L51,11 L70,12 L70,19 L56,19 L56,36 L55,47 L52,46 L53,19 L38,19 L38,34 L37,47 L42,47 L42,50 L38,51 L37,55 L34,55 L34,50 L30,50 L30,47 L34,47 L35,19 L21,20 L20,39 L19,46 L17,46 L17,50 L13,50 L14,55 L11,55 L10,51 L6,50 L6,47 L16,47 L17,23 L18,19 L4,20 L2,46 L-3,45 L-1,9 Z M4,2 L2,3 L1,11 L2,12 L24,12 L24,3 L21,2 Z M29,2 L26,3 L26,11 L27,12 L48,12 L48,2 Z " fill="#FFFFFF" transform="translate(496,406)"/>
<path d="M0,0 L80,0 L81,13 L80,14 L1,14 L0,13 Z " fill="#FFFFFF" transform="translate(710,382)"/>
<path d="M0,0 L1,0 L1,11 L-59,22 L-65,22 L-67,26 L-74,35 L-83,45 L-96,56 L-111,66 L-119,70 L-122,69 L-110,62 L-113,57 L-110,55 L-107,56 L-94,46 L-78,30 L-71,19 L-71,11 L-67,10 L-66,6 L-63,5 L-62,9 L-63,13 L-51,10 Z " fill="#FFFFFF" transform="translate(1263,480)"/>
<path d="M0,0 L76,0 L75,10 L74,15 L26,15 L-3,14 Z " fill="#FFFFFF" transform="translate(191,614)"/>
<path d="M0,0 L80,0 L80,9 L79,14 L1,14 L0,13 Z " fill="#FFFFFF" transform="translate(488,382)"/>
<path d="M0,0 L59,0 L58,3 L37,3 L37,12 L59,12 L59,19 L37,19 L37,46 L31,46 L31,32 L32,19 L8,19 L8,50 L4,51 L3,55 L1,55 L-1,50 Z M15,2 L7,3 L7,12 L32,12 L32,3 L28,2 Z " fill="#FFFFFF" transform="translate(578,406)"/>
<path d="M0,0 L58,0 L59,26 L59,55 L56,55 L56,50 L51,50 L50,45 L50,19 L27,19 L27,46 L21,46 L21,19 L0,19 L0,12 L21,12 L21,3 L0,2 Z M32,2 L26,3 L26,12 L51,12 L51,3 L46,2 Z " fill="#FFFFFF" transform="translate(642,406)"/>
<path d="M0,0 L53,0 L56,10 L56,15 L-17,16 L-19,10 L-20,1 Z " fill="#FFFFFF" transform="translate(1032,614)"/>
<path d="M0,0 L78,0 L79,4 L79,14 L2,14 L1,13 Z " fill="#FFFFFF" transform="translate(800,382)"/>
<path d="M0,0 L77,0 L76,13 L75,14 L-1,14 L-2,11 L-1,1 Z " fill="#FFFFFF" transform="translate(401,382)"/>
<path d="M0,0 L107,0 L107,10 L0,10 Z " fill="#FFFFFF" transform="translate(587,525)"/>
<path d="M0,0 L104,1 L104,11 L0,11 L-1,10 Z " fill="#FFFFFF" transform="translate(450,534)"/>
<path d="M0,0 L104,0 L105,2 L105,10 L0,10 L-1,1 Z " fill="#FFFFFF" transform="translate(726,534)"/>
<path d="M0,0 L19,0 L20,1 L21,16 L-42,16 L-42,1 Z " fill="#FFFFFF" transform="translate(725,616)"/>
<path d="M0,0 L62,1 L62,16 L61,17 L-1,16 Z " fill="#FFFFFF" transform="translate(536,616)"/>
<path d="M0,0 L9,1 L11,3 L-3,5 L-171,19 L-178,19 L-178,13 L-67,5 Z " fill="#FFFFFF" transform="translate(178,637)"/>
<path d="M0,0 L33,0 L34,13 L-30,13 L-31,12 L-32,1 Z " fill="#FFFFFF" transform="translate(834,405)"/>
<path d="M0,0 L72,0 L72,11 L0,11 Z " fill="#FFFFFF" transform="translate(503,331)"/>
<path d="M0,0 L72,0 L73,11 L1,11 Z " fill="#FFFFFF" transform="translate(703,331)"/>
<path d="M0,0 L70,0 L70,11 L-1,11 L-1,4 Z " fill="#FFFFFF" transform="translate(422,331)"/>
<path d="M0,0 L63,1 L62,13 L-2,13 L-2,5 Z " fill="#FFFFFF" transform="translate(413,405)"/>
<path d="M0,0 L70,0 L71,11 L1,11 L0,10 Z " fill="#FFFFFF" transform="translate(786,331)"/>
<path d="M0,0 L13,0 L108,7 L163,11 L171,12 L171,18 L133,15 L6,4 L-3,3 Z " fill="#FFFFFF" transform="translate(1093,638)"/>
<path d="M0,0 L16,0 L47,2 L55,3 L54,12 L52,17 L46,15 L26,14 L3,14 L-2,15 L-1,6 Z " fill="#FFFFFF" transform="translate(132,574)"/>
<path d="M0,0 L14,0 L25,1 L20,14 L36,14 L55,15 L60,16 L62,10 L65,4 L75,4 L84,5 L80,21 L71,18 L27,16 L3,16 L-4,18 L-2,6 Z " fill="#FFFFFF" transform="translate(42,568)"/>
<path d="M0,0 L65,0 L69,32 L69,36 L65,36 L65,41 L62,41 L62,36 L58,36 L58,33 L65,33 L62,9 L62,3 L48,3 L51,27 L51,32 L48,32 L47,30 L44,3 L30,3 L33,27 L33,32 L30,32 L27,10 L27,3 L13,3 L16,32 L21,33 L21,36 L17,36 L17,41 L14,41 L14,36 L10,36 L10,33 L12,33 L9,3 L0,3 Z " fill="#FFFFFF" transform="translate(804,420)"/>
<path d="M0,0 L7,6 L12,10 L12,8 L15,8 L18,39 L18,52 L5,49 L3,48 L0,13 Z " fill="#FFFFFF" transform="translate(846,580)"/>
<path d="M0,0 L65,0 L65,3 L55,3 L54,19 L53,30 L52,33 L56,33 L56,36 L51,36 L51,41 L49,41 L48,37 L45,36 L45,33 L49,33 L51,8 L52,3 L38,3 L35,32 L32,32 L32,23 L34,3 L20,3 L19,17 L17,32 L14,32 L15,14 L16,5 L17,3 L3,4 L0,30 L-1,33 L8,33 L8,36 L4,36 L4,41 L1,41 L1,36 L-3,35 L-3,22 Z " fill="#FFFFFF" transform="translate(410,420)"/>
<path d="M0,0 L10,0 L13,14 L7,13 L-29,14 L-37,15 L-41,16 L-43,8 L-43,3 Z " fill="#FFFFFF" transform="translate(1135,575)"/>
<path d="M0,0 L11,1 L20,0 L23,1 L30,1 L35,0 L39,2 L39,4 L35,6 L34,5 L34,16 L35,24 L34,28 L34,41 L31,44 L28,41 L20,42 L17,43 L10,41 L5,42 L2,44 L0,40 L1,30 L0,25 L0,18 L1,16 L1,5 L-1,6 L-5,4 L-5,2 Z M4,5 L5,9 L5,34 L3,39 L8,38 L27,38 L32,39 L30,36 L30,5 Z " fill="#FFFFFF" transform="translate(622,303)"/>
<path d="M0,0 L14,0 L11,37 L10,42 L-4,45 L-4,36 L-1,4 Z " fill="#FFFFFF" transform="translate(408,587)"/>
<path d="M0,0 L37,0 L37,10 L36,15 L-1,15 L-1,5 Z " fill="#FFFFFF" transform="translate(421,616)"/>
<path d="M0,0 L2,1 L7,22 L8,23 L26,23 L26,27 L8,27 L12,47 L32,49 L32,52 L-11,49 L-17,48 L-22,24 L-25,7 L-25,2 L-22,2 L-18,23 L3,22 L-1,1 Z M-18,26 L-14,46 L-7,47 L9,47 L5,27 L4,26 Z " fill="#FFFFFF" transform="translate(1127,589)"/>
<path d="M0,0 L7,2 L4,24 L-1,55 L-2,57 L-6,57 L-6,61 L-11,61 L-11,66 L-13,66 L-8,36 L-2,4 Z " fill="#FFFFFF" transform="translate(353,395)"/>
<path d="M0,0 L11,0 L33,2 L28,21 L22,20 L12,17 L0,16 Z " fill="#FFFFFF" transform="translate(0,565)"/>
<path d="M0,0 L2,0 L2,7 L-1,22 L20,22 L24,1 L28,2 L23,28 L19,47 L17,48 L-23,51 L-31,51 L-30,48 L-15,47 L-10,46 L-7,30 L-7,26 L-26,26 L-25,23 L-6,23 L-1,2 Z M-2,25 L-4,31 L-7,47 L7,47 L16,46 L20,28 L20,25 Z " fill="#FFFFFF" transform="translate(150,589)"/>
<path d="M0,0 L7,0 L9,5 L18,55 L18,60 L14,60 L13,57 L8,56 L0,5 Z " fill="#FFFFFF" transform="translate(919,396)"/>
<path d="M0,0 L5,0 L4,8 L-15,80 L-22,80 L-18,63 L-1,1 Z " fill="#FFFFFF" transform="translate(35,567)"/>
<path d="M0,0 L8,0 L16,49 L16,59 L11,59 L12,63 L9,64 L1,11 Z " fill="#FFFFFF" transform="translate(881,397)"/>
<path d="M0,0 L5,0 L8,8 L18,44 L27,76 L27,79 L21,79 L14,55 L6,26 L0,3 Z " fill="#FFFFFF" transform="translate(1237,569)"/>
<path d="M0,0 L8,0 L8,23 L7,57 L5,58 L5,55 L-2,55 L-2,38 Z " fill="#FFFFFF" transform="translate(569,397)"/>
<path d="M0,0 L8,0 L2,47 L-1,64 L-3,63 L-3,59 L-7,59 L-7,46 Z " fill="#FFFFFF" transform="translate(390,397)"/>
<path d="M0,0 L7,0 L8,11 L9,35 L9,55 L4,55 L4,59 L1,59 L0,42 L-1,1 Z " fill="#FFFFFF" transform="translate(702,397)"/>
<path d="M0,0 L7,0 L6,22 L3,59 L-1,59 L-1,55 L-5,55 L-4,36 L-1,1 Z " fill="#FFFFFF" transform="translate(479,397)"/>
<path d="M0,0 L7,0 L12,49 L12,55 L8,55 L8,59 L4,59 L2,39 L0,12 Z " fill="#FFFFFF" transform="translate(793,397)"/>
<path d="M0,0 L37,0 L38,3 L-11,4 L-83,5 L-114,5 L-114,2 L-73,1 Z " fill="#FFFFFF" transform="translate(980,632)"/>
<path d="M0,0 L40,0 L110,1 L141,2 L141,5 L114,5 L44,4 L-1,3 Z " fill="#FFFFFF" transform="translate(261,632)"/>
<path d="M0,0 L74,1 L74,6 L73,7 L42,7 L-2,6 Z " fill="#FFFFFF" transform="translate(194,606)"/>
<path d="M0,0 L36,0 L37,1 L37,8 L36,11 L0,11 Z " fill="#FFFFFF" transform="translate(585,331)"/>
<path d="M0,0 L8,0 L9,1 L13,51 L12,55 L11,50 L7,50 L6,47 L4,46 L3,42 Z " fill="#FFFFFF" transform="translate(783,406)"/>
<path d="M0,0 L65,0 L66,5 L36,6 L-6,6 L-7,1 Z " fill="#FFFFFF" transform="translate(1018,607)"/>
<path d="M0,0 L36,0 L36,11 L1,11 L-1,5 Z " fill="#FFFFFF" transform="translate(657,331)"/>
<path d="M0,0 L7,0 L7,14 L5,46 L2,47 L2,50 L-2,50 L-2,55 L-4,55 L-3,38 Z " fill="#FFFFFF" transform="translate(487,406)"/>
<path d="M0,0 L62,0 L62,6 L0,6 Z " fill="#FFFFFF" transform="translate(536,609)"/>
<path d="M0,0 L61,0 L61,6 L0,6 Z " fill="#FFFFFF" transform="translate(683,609)"/>
<path d="M0,0 L26,0 L24,14 L-2,14 L-1,4 Z " fill="#FFFFFF" transform="translate(364,382)"/>
<path d="M0,0 L24,0 L25,15 L1,15 L0,12 Z " fill="#FFFFFF" transform="translate(823,616)"/>
<path d="M0,0 L26,0 L27,14 L2,14 Z " fill="#FFFFFF" transform="translate(889,382)"/>
<path d="M0,0 L2,2 L10,49 L8,54 L6,54 L6,49 L2,49 L0,40 L-5,4 Z " fill="#FFFFFF" transform="translate(908,407)"/>
<path d="M0,0 L6,5 L4,24 L1,46 L0,49 L-3,49 L-3,54 L-5,54 L-5,49 L-8,48 L-1,5 Z " fill="#FFFFFF" transform="translate(369,407)"/>
<path d="M0,0 L4,0 L8,14 L8,17 L3,16 L0,15 L-34,15 L-34,14 L-16,13 L-18,8 L-20,2 L-16,1 Z " fill="#FFFFFF" transform="translate(1231,569)"/>
<path d="M0,0 L5,0 L15,50 L15,53 L10,53 L-2,8 L-3,1 Z " fill="#FFFFFF" transform="translate(1080,575)"/>
<path d="M0,0 L6,0 L5,15 L1,46 L0,47 L-5,47 L-6,44 L-1,4 Z " fill="#FFFFFF" transform="translate(404,405)"/>
<path d="M0,0 L6,0 L6,15 L-6,19 L-9,19 L-14,3 L-12,1 Z " fill="#FFFFFF" transform="translate(1258,567)"/>
<path d="M0,0 L6,0 L8,10 L12,39 L12,47 L6,47 L0,2 Z " fill="#FFFFFF" transform="translate(868,405)"/>
<path d="M0,0 L5,0 L10,9 L10,11 L28,11 L28,12 L5,13 L-4,15 L-9,17 L-13,2 L-12,1 Z " fill="#FFFFFF" transform="translate(1165,573)"/>
<path d="M0,0 L4,1 L18,63 L18,66 L14,66 L0,4 Z " fill="#FFFFFF" transform="translate(1147,575)"/>
<path d="M0,0 L4,0 L1,17 L-9,64 L-10,67 L-14,67 L-9,41 Z " fill="#FFFFFF" transform="translate(127,573)"/>
<path d="M0,0 L16,0 L17,5 L17,13 L1,13 L0,11 L-1,1 Z " fill="#FFFFFF" transform="translate(908,619)"/>
<path d="M0,0 L15,0 L16,3 L15,12 L14,13 L-1,13 L-2,8 L-1,1 Z " fill="#FFFFFF" transform="translate(355,619)"/>
<path d="M0,0 L5,0 L1,19 L-7,52 L-11,53 L-1,1 Z " fill="#FFFFFF" transform="translate(194,575)"/>
<path d="M0,0 L9,0 L11,9 L11,13 L-5,13 L-6,1 Z " fill="#FFFFFF" transform="translate(980,618)"/>
<path d="M0,0 L16,0 L15,12 L-1,12 Z " fill="#FFFFFF" transform="translate(309,619)"/>
<path d="M0,0 L38,0 L38,5 L0,5 Z " fill="#FFFFFF" transform="translate(421,609)"/>
<path d="M0,0 L2,0 L1,8 L7,6 L5,10 L5,16 L11,19 L11,21 L5,21 L2,20 L-2,19 L0,16 L-3,15 L-3,19 L-10,20 L-11,16 L-8,11 L-12,10 L-8,8 L-7,1 L-5,1 L-3,5 L-4,9 L-4,12 L-1,4 Z M1,10 L1,14 L2,10 Z M-8,16 L-7,18 L-6,16 Z " fill="#FFFFFF" transform="translate(584,488)"/>
<path d="M0,0 L2,0 L2,7 L5,6 L8,0 L10,1 L8,7 L12,6 L16,10 L14,17 L9,21 L6,20 L2,21 L0,19 L-5,18 L-4,13 L-1,10 L-5,10 L-4,4 L-2,4 L-1,7 Z M9,8 L7,9 L7,14 L11,10 L8,19 L12,17 L14,13 L13,8 Z M4,9 L1,12 L1,18 L3,20 L7,17 L7,15 L4,13 L5,9 Z M-2,14 L-3,16 L-1,16 Z " fill="#FFFFFF" transform="translate(663,488)"/>
<path d="M0,0 L5,1 L6,6 L6,13 L-9,13 L-10,8 L-10,1 Z " fill="#FFFFFF" transform="translate(897,619)"/>
<path d="M0,0 L16,0 L17,4 L17,12 L2,12 Z " fill="#FFFFFF" transform="translate(953,619)"/>
<path d="M0,0 L2,2 L0,13 L-15,13 L-15,5 L-14,1 Z " fill="#FFFFFF" transform="translate(303,618)"/>
<path d="M0,0 L2,0 L2,5 L5,6 L5,12 L7,14 L5,15 L4,23 L-1,22 L-2,18 L0,13 L-3,13 L-4,9 L-6,9 L-6,16 L-2,14 L-2,17 L-6,17 L-6,22 L-8,22 L-9,20 L-10,11 L-13,10 L-9,5 L-8,2 L-6,2 L-5,7 L-3,6 L-3,4 L-1,3 Z M-1,5 Z M2,7 L1,10 L4,9 L4,7 Z M-2,9 Z M2,12 Z M1,16 L0,21 L2,21 L2,16 Z " fill="#FFFFFF" transform="translate(642,487)"/>
<path d="M0,0 L8,1 L11,2 L12,12 L7,15 L-1,16 L-2,11 L-2,1 Z " fill="#FFFFFF" transform="translate(919,379)"/>
<path d="M0,0 L5,2 L6,3 L5,16 L2,17 L-7,14 L-8,13 L-8,4 Z " fill="#FFFFFF" transform="translate(356,378)"/>
<path d="M0,0 L2,0 L1,8 L-13,60 L-14,62 L-21,62 L-21,58 L-16,57 L-1,2 Z " fill="#FFFFFF" transform="translate(21,586)"/>
<path d="M0,0 L3,0 L15,58 L11,57 L0,2 Z " fill="#FFFFFF" transform="translate(1087,578)"/>
<path d="M0,0 L5,5 L11,12 L15,15 L15,21 L11,19 L3,11 L1,15 L-1,23 L-3,23 L-4,21 L-3,11 L-1,1 Z " fill="#FFFFFF" transform="translate(842,566)"/>
<path d="M0,0 L2,0 L1,11 L-8,56 L-11,59 L-12,56 L-1,3 Z " fill="#FFFFFF" transform="translate(189,577)"/>
<path d="M0,0 L3,0 L3,3 L7,3 L6,8 L2,10 L4,11 L3,14 L-3,19 L-2,12 L-6,11 L-6,19 L-9,20 L-10,10 L-8,5 L-10,3 L-7,1 L-4,1 L-4,5 L-1,4 Z M-6,4 L-7,8 L-5,7 Z M2,5 L-1,8 L6,7 L6,5 Z M-4,8 L-3,10 Z " fill="#FFFFFF" transform="translate(696,489)"/>
<path d="M0,0 L2,1 L4,12 L4,19 L1,18 L0,11 L-8,18 L-11,20 L-12,14 L-3,5 Z " fill="#FFFFFF" transform="translate(437,567)"/>
<path d="M0,0 L24,0 L24,5 L0,5 Z " fill="#FFFFFF" transform="translate(822,609)"/>
<path d="M0,0 L7,0 L7,13 L-1,13 L-1,1 Z " fill="#FFFFFF" transform="translate(570,382)"/>
<path d="M0,0 L7,0 L9,9 L9,13 L1,13 L0,8 Z " fill="#FFFFFF" transform="translate(880,382)"/>
<path d="M0,0 L5,2 L5,11 L4,16 L-2,16 L-2,2 Z " fill="#FFFFFF" transform="translate(415,326)"/>
<path d="M0,0 L7,0 L8,5 L8,13 L0,13 Z " fill="#FFFFFF" transform="translate(701,382)"/>
<path d="M0,0 L5,0 L6,3 L6,15 L0,15 L-1,11 L-1,1 Z " fill="#FFFFFF" transform="translate(859,327)"/>
<path d="M0,0 L6,0 L7,2 L6,12 L5,13 L-2,13 Z " fill="#FFFFFF" transform="translate(392,382)"/>
<path d="M0,0 L6,0 L7,1 L7,13 L0,13 Z " fill="#FFFFFF" transform="translate(792,382)"/>
<path d="M0,0 L6,0 L6,13 L-1,13 L-1,5 Z " fill="#FFFFFF" transform="translate(480,382)"/>
<path d="M0,0 L7,0 L8,11 L0,11 Z " fill="#FFFFFF" transform="translate(777,331)"/>
<path d="M0,0 L9,1 L12,2 L17,0 L22,0 L24,4 L-2,4 Z " fill="#FFFFFF" transform="translate(628,345)"/>
<path d="M0,0 L8,0 L8,11 L1,11 Z " fill="#FFFFFF" transform="translate(694,331)"/>
<path d="M0,0 L7,0 L7,11 L0,11 Z " fill="#FFFFFF" transform="translate(494,331)"/>
<path d="M0,0 L6,0 L5,12 L-1,12 L-1,5 Z " fill="#FFFFFF" transform="translate(376,620)"/>
<path d="M0,0 L6,0 L6,11 L-1,11 Z " fill="#FFFFFF" transform="translate(577,331)"/>
<path d="M0,0 L1,0 L1,65 L0,65 Z " fill="#FFFFFF" transform="translate(639,387)"/>
<path d="M0,0 L15,0 L16,4 L0,4 Z " fill="#FFFFFF" transform="translate(1231,613)"/>
<path d="M0,0 L3,1 L3,3 L11,3 L12,7 L8,9 L8,7 L10,5 L2,6 L-3,8 L-5,11 L-8,11 L-7,6 L-5,4 L1,4 Z " fill="#FFFFFF" transform="translate(610,488)"/>
<path d="M0,0 L18,0 L17,3 L10,4 L0,4 Z " fill="#FFFFFF" transform="translate(30,613)"/>
<path d="M0,0 L11,0 L11,3 L7,3 L7,8 L4,8 L3,4 L-1,3 Z " fill="#FFFFFF" transform="translate(551,453)"/>
<path d="M0,0 L11,0 L11,3 L7,3 L7,8 L4,8 L4,3 L0,3 Z " fill="#FFFFFF" transform="translate(838,453)"/>
<path d="M0,0 L12,0 L12,3 L7,3 L7,8 L5,8 L4,3 L0,3 Z " fill="#FFFFFF" transform="translate(766,453)"/>
<path d="M0,0 L14,3 L15,7 L-1,3 Z " fill="#FFFFFF" transform="translate(850,630)"/>
<path d="M0,0 L12,0 L12,4 L1,4 Z " fill="#FFFFFF" transform="translate(1211,613)"/>
<path d="M0,0 L12,0 L11,3 L8,4 L0,4 Z " fill="#FFFFFF" transform="translate(0,614)"/>
<path d="M0,0 L11,0 L11,3 L6,3 L6,8 L4,8 L4,3 L0,3 Z " fill="#FFFFFF" transform="translate(431,453)"/>
<path d="M0,0 L5,0 L4,3 L-10,6 L-8,2 Z " fill="#FFFFFF" transform="translate(413,631)"/>
<path d="M0,0 L6,0 L6,4 L-6,4 L-6,1 Z " fill="#FFFFFF" transform="translate(61,612)"/>
<path d="M0,0 L10,0 L9,4 L-1,4 Z " fill="#FFFFFF" transform="translate(76,612)"/>
<path d="M0,0 L3,0 L3,4 L3,6 L-5,6 L-6,2 Z M-4,3 L-4,5 L-2,5 L-2,3 Z " fill="#FFFFFF" transform="translate(613,503)"/>
<path d="M0,0 L5,0 L6,4 L-1,7 L-2,1 Z M1,2 Z " fill="#FFFFFF" transform="translate(609,496)"/>
<path d="M0,0 L5,0 L4,4 L0,6 L-4,6 L-2,2 Z " fill="#FFFFFF" transform="translate(985,346)"/>
<path d="M0,0 L10,0 L11,3 L9,4 L1,3 Z " fill="#FFFFFF" transform="translate(1192,613)"/>
<path d="M0,0 L5,2 L8,6 L1,5 L-1,1 Z " fill="#FFFFFF" transform="translate(291,347)"/>
<path d="M0,0 L2,3 L1,6 L-5,7 L-7,6 L-6,2 L-5,5 L-1,4 Z " fill="#FFFFFF" transform="translate(704,502)"/>
<path d="M0,0 L3,1 L3,8 L1,8 Z " fill="#FFFFFF" transform="translate(866,328)"/>
<path d="M0,0 L2,0 L1,8 L-1,8 L-1,1 Z " fill="#FFFFFF" transform="translate(410,329)"/>
<path d="M0,0 L5,4 L5,6 L0,4 Z " fill="#FFFFFF" transform="translate(359,288)"/>
<path d="M0,0 L2,0 L0,4 L-4,5 Z " fill="#FFFFFF" transform="translate(918,290)"/>
<path d="M0,0 L2,0 L2,2 L-2,1 Z " fill="#FFFFFF" transform="translate(647,488)"/>
<path d="M0,0 L2,1 Z " fill="#FFFFFF" transform="translate(915,288)"/>
<path d="M0,0 Z " fill="#FFFFFF" transform="translate(362,287)"/>
</svg>
